<svg width="1074" height="1216" viewBox="0 0 1074 1216" fill="none" xmlns="http://www.w3.org/2000/svg">
<path d="M426.842 1158.4C402.172 1149.49 396.986 1127.25 415.177 1109.37C412.28 1105.43 409.165 1101.49 407.903 1096.44C406.689 1091.58 407.405 1086.93 408.262 1082.02C407.576 1081.61 406.938 1080.93 406.237 1080.87C395.973 1079.98 383.467 1080.79 373.265 1082.89C371.459 1084.87 371.443 1087.49 371.381 1089.98C371.023 1103.53 368.873 1117.02 370.524 1130.63C371.038 1134.8 370.602 1139.1 370.602 1143.34C371.817 1145.41 372.954 1147.34 374.106 1149.26C375.555 1151.69 377.221 1154.01 378.436 1156.53C381.567 1163.04 382.968 1169.83 381.504 1177.09C379.698 1186.02 377.517 1194.71 371.599 1202.03C368.141 1206.31 364.107 1209.86 359.015 1211.79C354.295 1213.59 349.358 1215.47 344.406 1215.88C335.341 1216.62 327.149 1213.54 320.28 1207.45C318.396 1205.78 316.838 1203.77 315.296 1202.09C313.069 1201.76 311.995 1203.31 310.562 1204.05C307.307 1205.74 304.052 1207.45 300.765 1209.07C287.356 1215.67 268.604 1205.3 265.193 1191.06C264.18 1186.87 264.258 1182.67 265.208 1178.46C265.707 1176.28 266.112 1174.1 266.641 1171.45C264.663 1171.1 263.044 1170.82 261.439 1170.52C244.697 1167.31 234.916 1150.77 240.196 1134.49C243.155 1125.35 248.964 1118.12 255.77 1111.6C257.39 1110.04 259.212 1108.68 260.816 1107.35C262.031 1104.49 262.748 1101.83 261.533 1098.61C259.197 1097.56 256.596 1096.52 254.104 1095.31C246.005 1091.35 241.815 1084.51 241.005 1075.82C240.336 1068.56 243.513 1062.6 249.307 1058.2C251.534 1056.52 254.057 1055.24 256.3 1053.89C257.094 1051.57 255.879 1049.81 255.412 1047.96C252.609 1037.01 257.001 1026.73 266.937 1021.46C274.787 1017.32 282.995 1016.37 291.545 1019.08C292.869 1019.5 294.193 1019.95 296 1020.56C296.327 1018.95 296.747 1017.68 296.841 1016.37C297.432 1007.62 297.37 998.877 297.168 990.093C296.825 975.685 297.121 961.247 297.277 946.824C297.417 933.818 297.977 920.797 297.868 907.791C297.791 898.477 296.918 889.163 296.327 879.849C296.233 878.494 295.766 877.154 295.377 875.332C294.084 875.597 292.916 875.535 292.09 876.049C289.225 877.84 286.328 879.662 283.727 881.796C278.914 885.737 274.242 889.849 269.585 893.976C255.63 906.374 241.722 918.803 227.798 931.233C226.739 932.167 225.758 933.211 224.59 934.005C221.895 935.874 218.921 936.559 215.743 935.422C213.61 934.675 211.523 933.818 209.451 932.915C184.547 921.903 161.107 908.305 138.789 892.761C131.843 887.917 125.442 882.31 118.838 876.983C115.754 874.491 112.795 871.874 109.82 869.242C106.799 866.563 103.481 864.725 99.3695 864.071C96.0521 863.541 92.7659 862.467 89.6354 861.221C80.384 857.576 73.1263 851.502 68.267 842.732C66.507 839.54 64.8873 836.269 63.0806 832.795C61.6166 832.795 60.1682 832.499 58.8755 832.842C53.5178 834.306 48.238 833.481 42.8959 832.842C32.9125 831.643 24.5334 827.266 17.6961 820.101C10.9678 813.046 7.80618 804.308 7.88406 794.635C7.94635 786.739 11.6375 780.368 18.2568 776.194C27.1187 770.602 36.8996 768.282 47.4125 769.746C49.92 770.088 52.4276 770.556 54.7949 770.945C56.7262 769.341 55.5269 767.674 55.1687 766.163C53.4399 758.89 53.0194 751.647 55.5269 744.451C59.9501 731.71 71.8336 725.059 85.0253 727.816C96.2702 730.168 104.26 737.131 110.428 746.258C114.384 752.13 117 758.734 118.246 765.805C118.885 769.45 119.274 773.048 118.635 776.755C118.262 778.935 118.386 781.209 118.277 783.826C119.944 784.464 121.408 785.274 122.981 785.57C132.31 787.393 138.68 792.875 142.776 801.27C145.673 807.205 147.371 813.404 146.981 820.086C146.872 822.033 146.966 824.011 146.966 826.191C159.675 837.67 174.237 845.162 191.276 847.545C196.026 848.2 200.138 846.548 203.844 843.589C210.853 837.997 215.977 830.911 219.746 822.92C226.755 808.061 232.284 792.642 235.352 776.428C236.037 772.83 236.66 769.216 237.314 765.509C236.084 762.643 234.947 759.762 233.623 756.958C227.004 742.847 222.004 728.128 217.986 713.097C214.84 701.338 213.205 689.298 211.787 677.227C209.295 656.075 209.903 634.862 210.354 613.663C210.635 600.658 213.205 587.839 215.93 575.129C219.263 559.647 223.032 544.29 229.465 529.727C229.901 528.746 229.979 527.593 230.352 525.942C222.207 525.708 214.419 526.409 206.679 524.042C198.985 521.69 192.288 517.656 185.544 513.591C171.418 523.621 158.584 519.93 146.14 510.226C144.598 511.908 143.259 513.295 141.997 514.743C140.346 516.659 138.867 518.746 137.091 520.537C135.596 522.064 133.649 522.391 131.578 521.316C129.335 519.244 129.429 516.799 131.017 514.478C133.556 510.756 136.328 507.205 139.209 503.295C138.509 501.706 137.886 500.18 137.154 498.716C136.406 497.205 135.565 495.741 134.615 493.997C131.983 493.389 129.211 492.906 126.532 492.127C123.027 491.099 119.57 489.838 116.112 488.639C115.318 488.358 114.555 487.953 113.838 487.517C112.001 486.396 111.16 484.371 111.658 482.455C112.187 480.415 114.602 479.06 117.14 479.714C119.585 480.352 121.953 481.318 124.351 482.159C126.469 482.891 128.525 483.997 131.017 482.985C132.621 480.446 131.749 477.658 131.5 474.683C127.965 470.836 124.102 467.082 120.769 462.908C116.019 456.942 111.658 450.681 107.157 444.529C106.487 443.625 105.926 442.628 105.413 441.616C104.447 439.763 104.151 437.753 105.335 435.962C106.612 434.015 108.59 434.015 111.58 434.981C118.168 442.94 122.794 453.578 131.858 461.085C133.961 459.294 134.07 457.098 134.444 454.388C125.924 447.161 118.791 438.563 117.047 426.087C117.794 425.09 118.589 423.564 119.788 422.505C127.404 415.761 135.129 409.141 142.776 402.444C143.384 401.914 143.82 401.198 144.598 400.216C143.757 399.095 143.041 397.927 142.122 396.945C135.674 390.092 130.534 382.351 126.532 373.831C122.576 365.389 118.433 357.025 115.972 347.976C114.181 341.388 112.888 334.721 113.511 327.884C113.792 324.831 114.461 321.731 115.474 318.834C116.891 314.785 119.772 312.246 124.351 312.23C125.753 312.23 127.155 312.23 128.774 312.23C132.248 308.025 133.821 302.776 136.671 298.29C139.381 294.022 141.842 289.583 144.443 285.175C141.094 274.413 137.855 263.93 134.459 253.012C133.12 252.778 131.5 252.327 129.865 252.233C119.43 251.673 108.979 250.925 98.5285 250.785C91.4732 250.691 84.4179 251.532 77.3626 251.906C75.3846 252.015 73.3755 252.155 71.4442 251.828C68.267 251.314 65.4012 250.115 64.7627 246.299C65.2766 242.312 68.2202 239.882 71.086 237.67C76.9109 233.2 82.985 229.057 88.9657 224.789C91.224 223.169 93.529 221.612 95.6784 220.116C95.289 217.702 93.5758 218.045 92.4077 217.765C83.3432 215.615 74.2476 213.59 65.1832 211.441C62.1617 210.724 59.1402 209.961 56.2278 208.887C43.7836 204.292 31.3862 199.557 18.9421 194.946C14.9861 193.482 10.9367 192.236 6.934 190.881C6.13969 190.616 5.31424 190.398 4.53551 190.071C2.05914 189.028 0.828739 187.252 0.922187 184.916C1.01563 182.673 2.54195 180.726 5.14292 180.29C10.1424 179.449 15.2041 178.841 20.2348 178.172C33.2552 176.427 45.3411 172.159 57.0532 166.116C75.5403 156.6 92.0183 144.264 108.154 131.367C115.007 125.9 121.797 120.355 128.634 114.873C136.157 108.861 143.96 103.269 152.619 98.9545C153.616 98.4561 154.504 97.7552 155.859 96.8674C154.909 95.9328 154.286 94.9049 153.398 94.5466C140.222 89.2354 126.812 84.9521 112.328 85.653C111.487 85.6997 110.63 85.7153 109.789 85.6374C105.459 85.248 104.291 83.2076 105.303 77.8808C107.842 74.8903 111.642 74.2984 115.053 73.1147C133.462 66.6976 152.261 61.6667 171.262 57.2744C187.553 53.5207 204 50.7638 220.603 49.5178C235.523 48.3963 250.506 47.3528 265.52 48.6923C269.398 49.0349 273.338 49.1907 278.026 48.9103C276.967 47.2126 276.562 46.1223 275.799 45.437C263.433 34.2226 250.958 23.1173 236.068 15.236C232.829 13.5227 229.433 12.1054 226.132 10.5011C223.017 8.97468 221.755 7.05889 222.207 4.67583C222.705 2.01242 225.01 0.454864 228.904 1.10904C238.654 2.74447 248.45 4.22414 258.028 6.63835C286.172 13.7096 312.851 24.3633 336.976 40.7487C350.09 49.6579 362.534 59.455 374.231 70.1709C376.302 72.0711 378.436 73.909 380.274 75.5445C382.968 75.7625 383.467 73.8779 384.199 72.4605C387.594 65.9499 390.834 59.3459 394.229 52.8354C395.537 50.3277 397.017 47.9135 398.59 45.5772C399.524 44.1909 400.646 42.8514 401.923 41.7923C405.287 39.0043 410.317 40.8266 411.081 45.1722C411.47 47.3683 411.345 49.6735 411.361 51.932C411.392 60.4206 411.486 68.8937 411.377 77.3824C411.221 89.3288 413.573 100.995 415.255 112.739C415.488 114.359 416.36 115.885 416.952 117.489C419.538 117.925 421.531 116.757 423.587 116.072C429.739 114.016 435.86 111.804 442.012 109.748C455.795 105.154 464.611 110.683 470.186 122.707C473.628 130.137 476.245 137.971 477.335 146.133C478.721 156.49 479.827 166.895 480.855 177.299C481.182 180.664 481.042 184.09 480.855 187.47C480.388 195.943 479.858 204.401 479.173 212.858C478.737 218.201 477.989 223.528 477.413 228.87C477.32 229.68 477.413 230.505 477.413 231.487C478.254 231.783 479.048 232.328 479.78 232.25C486.368 231.611 491.399 234.602 495.277 239.415C498.813 243.791 502.037 248.495 504.809 253.386C508.017 259.024 510.634 265.005 513.406 270.877C514.122 272.388 514.699 274.039 514.964 275.674C515.602 279.553 514.543 282.933 511.568 285.643C506.273 290.456 499.825 292.325 492.91 292.558C489.094 292.683 485.823 290.736 482.942 288.353C480.762 286.562 478.83 284.475 476.712 282.59C475.98 281.936 475.015 281.531 473.223 280.456C480.762 332.229 472.834 380.467 448.958 425.807C452.992 446.32 461.994 463.967 476.65 478.483C486.088 487.829 495.9 496.816 505.899 505.569C519.169 517.189 534.697 525.506 549.96 534.104C563.743 541.876 577.87 548.994 592.619 554.835C599.425 557.529 605.951 560.987 612.585 564.149C630.418 572.684 648.189 581.36 666.084 589.786C689.929 601.032 708.899 617.9 724.287 639.145C740.827 661.963 750.686 687.663 757.508 714.733C762.772 735.604 766.027 756.787 768.316 778.188C769.64 790.586 769.671 803.031 770.435 815.429C771.68 835.505 771.462 855.582 771.182 875.659C770.995 888.088 770.045 900.502 769.235 912.916C768.316 927.012 767.148 941.108 766.183 955.203C765.342 967.337 764.407 979.455 763.971 991.603C763.737 998.067 764.329 1004.58 764.905 1011.04C765.201 1014.47 767.086 1017.4 769.313 1020.06C774.842 1026.63 781.337 1031.91 788.999 1035.88C803.624 1043.49 818.918 1049.12 835.038 1052.6C843.308 1054.39 851.438 1056.74 859.849 1057.99C874.707 1060.2 889.129 1058.81 903.317 1054.12C910.918 1051.62 917.926 1047.88 924.016 1042.75C935.058 1033.45 945.743 1023.75 953.873 1011.63C959.246 1003.63 963.435 994.968 967.267 986.152C970.413 978.909 973.014 971.433 975.864 964.05C981.907 948.428 985.52 932.136 988.495 915.751C990.707 903.493 991.034 891.048 988.916 878.634C985.738 859.943 979.197 842.67 967.812 827.391C965.632 824.462 963.373 821.41 960.585 819.12C950.913 811.192 940.463 804.604 928.065 801.551C921.368 799.9 914.64 799.588 907.865 800.18C900.872 800.788 894.876 803.794 889.783 808.622C887.478 810.818 885.858 813.357 884.939 816.441C881.715 827.266 884.643 830.147 890.92 834.68C895.047 837.655 899.377 840.334 903.551 843.246C919.515 854.367 925.309 870.13 923.782 888.93C921.929 911.81 904.813 924.769 885.889 927.121C878.429 928.055 871.202 926.685 864.427 923.507C851.189 917.293 839.726 908.664 830.381 897.387C826.97 893.26 823.793 888.883 820.896 884.381C813.031 872.139 810.228 858.339 809.402 844.072C808.203 823.372 812.86 803.654 820.009 784.418C821.971 779.122 824.276 773.951 826.612 768.811C830.973 759.17 837.047 750.65 844.57 743.267C858.229 729.872 873.617 719.063 891.777 712.443C907.491 706.711 923.549 704.656 940.12 707.039C948.219 708.207 956.287 709.733 964.401 710.808C977.11 712.49 988.121 717.723 997.98 725.776C1008.51 734.374 1018.41 743.657 1027.71 753.563C1029.44 755.401 1031 757.472 1032.35 759.606C1045.16 779.745 1055.67 800.943 1062.01 824.057C1062.46 825.693 1062.88 827.344 1063.52 828.901C1069.09 842.67 1071.45 857.202 1073.03 871.796C1074.09 881.609 1074.06 891.577 1073.91 901.452C1073.67 916.436 1072.77 931.404 1070.18 946.201C1069.27 951.481 1068.35 956.823 1066.7 961.901C1063.32 972.383 1059.81 982.85 1055.72 993.067C1049.28 1009.08 1041.17 1024.33 1032.87 1039.44C1026.84 1050.42 1018.83 1060 1010.56 1069.28C999.46 1081.75 987.483 1093.37 974.244 1103.64C956.318 1117.52 935.915 1126.35 914.438 1132.92C906.074 1135.47 897.633 1138.03 889.051 1139.57C879.348 1141.32 869.458 1142.36 859.615 1142.94C849.741 1143.51 839.82 1143.29 829.93 1143.14C819.65 1142.98 809.854 1140.04 800.182 1136.88C790.526 1133.73 781.01 1130.13 771.509 1126.53C762.476 1123.12 754.206 1118.22 746.138 1112.95C742.353 1110.48 738.522 1108.06 734.675 1105.71C733.803 1105.18 732.728 1104.96 731.841 1104.62C730.532 1106.29 731.373 1107.58 731.731 1108.9C733.336 1114.9 735.127 1120.86 736.404 1126.94C737.198 1130.77 737.479 1134.77 737.479 1138.71C737.479 1147.3 733.491 1153.85 726.374 1158.53C721.078 1162 715.144 1164.07 708.961 1164.8C698.589 1166.03 688.185 1167.4 677.672 1166.66C667.798 1165.96 657.923 1165.35 648.049 1164.69C642.691 1164.34 637.334 1163.85 631.976 1163.62C617.569 1163 603.132 1162.86 588.756 1161.8C573.789 1160.71 558.806 1160.55 543.854 1159.76C534.541 1159.26 525.258 1158.23 515.976 1157.39C508.08 1156.67 500.199 1156.81 492.084 1156.98C491.259 1158.71 490.465 1160.16 489.842 1161.69C486.711 1169.32 482.397 1176.28 477.911 1183.14C476.541 1185.24 474.687 1187.08 472.865 1188.82C468.037 1193.43 462.726 1196.8 455.546 1196.28C447.665 1195.72 440.454 1193.79 434.879 1187.89C432.745 1185.64 430.892 1183.12 429.1 1180.6C425.472 1175.47 424.506 1169.76 425.643 1163.64C425.954 1162 426.375 1160.4 426.858 1158.29L426.842 1158.4ZM239.464 530.069C237.844 533.87 236.458 536.923 235.243 540.053C231.785 549.04 229.558 558.386 227.502 567.778C224.107 583.244 220.758 598.789 220.198 614.629C219.621 631.014 219.824 647.447 220.494 663.832C220.914 673.956 222.658 684.049 224.107 694.126C226.35 709.593 231.1 724.421 236.785 738.875C243.201 755.182 250.039 771.365 260.256 785.788C266.143 794.09 272.217 802.267 278.353 810.382C281.25 814.214 284.412 817.843 287.558 821.488C288.383 822.453 289.583 823.107 290.907 824.12C291.203 822.702 291.53 821.877 291.498 821.067C291.436 819.089 291.327 817.095 291.031 815.148C287.792 793.358 284.692 771.521 278.758 750.23C277.325 745.074 276.126 739.841 274.849 734.654C274.709 734.109 274.74 733.533 274.725 732.972C274.647 730.682 277.107 728.642 279.35 729.405C280.596 729.826 282.107 730.636 282.683 731.695C283.991 734.156 285.019 736.819 285.783 739.514C286.873 743.314 287.496 747.239 288.555 751.039C294.333 772.066 298.351 793.452 300.906 815.055C302.868 831.596 303.693 848.293 305.017 864.912C305.266 868.012 305.593 871.111 305.796 874.211C306.777 889.163 308.21 904.069 307.836 919.115C307.276 941.45 307.135 963.801 306.871 986.136C306.606 1007.91 306.419 1029.69 306.185 1051.48C306.185 1052.89 306.014 1054.29 305.889 1055.71C304.861 1067.25 303.958 1078.81 302.743 1090.34C302.151 1095.9 302.354 1101.58 300.796 1107.25C299.068 1107.75 297.277 1108.93 295.953 1108.53C290.19 1106.82 284.661 1108.17 279.226 1109.54C263.9 1113.45 254.882 1124.1 249.338 1138.28C249.229 1138.54 249.182 1138.82 249.12 1139.09C247.438 1146.14 250.257 1153.67 256.113 1157.79C262.389 1162.22 270.146 1162 275.893 1157.67C277.699 1156.31 279.444 1154.83 281.406 1153.73C282.823 1152.92 284.521 1152.44 286.141 1152.17C288.383 1151.81 290.377 1153 291.031 1154.69C291.81 1156.7 291.623 1158.67 290.206 1160.26C289.1 1161.5 287.776 1162.72 286.312 1163.49C279.381 1167.16 276.734 1173.62 274.958 1180.6C273.042 1188.1 276.033 1194.77 282.917 1198.42C285.611 1199.85 288.602 1200.72 291.047 1201.69C292.76 1201.22 293.866 1200.97 294.925 1200.61C304.27 1197.56 311.699 1192.53 314.066 1182.15C314.362 1180.86 315.328 1179.63 316.215 1178.56C317.43 1177.08 320.016 1176.61 321.651 1177.37C323.629 1178.29 324.704 1179.91 324.766 1182.03C324.797 1183.12 324.486 1184.26 324.205 1185.33C323.645 1187.51 322.99 1189.66 322.461 1191.5C326.105 1201.53 328.66 1203.4 342.443 1206.36C344.499 1205.89 346.695 1205.41 348.891 1204.91C359.201 1202.57 365.649 1196.05 369.013 1186.24C369.652 1184.37 370.135 1182.43 370.727 1180.55C373.483 1171.87 372.16 1163.84 367.004 1156.36C364.933 1153.36 362.986 1150.26 361.195 1147.51C361.195 1140.44 361.491 1133.92 361.133 1127.44C359.996 1107.03 361.397 1086.66 363.453 1066.44C366.054 1040.88 370.135 1015.47 373.717 989.999C376.162 972.648 378.966 955.359 381.395 938.008C384.51 915.86 389.899 894.21 394.945 872.466C395.194 871.376 395.537 870.286 395.989 869.258C396.799 867.451 398.917 866.407 400.895 866.703C402.873 866.984 404.586 868.65 404.617 870.706C404.648 872.653 404.508 874.662 404.088 876.563C402.39 884.288 400.583 891.998 398.761 899.692C394.727 916.763 391.752 934.005 389.354 951.372C388.793 955.437 389.26 959.175 390.865 962.944C392.952 967.882 394.743 972.959 396.612 977.99C407.187 1006.31 417.747 1034.64 428.337 1062.95C428.914 1064.5 429.692 1065.98 430.424 1067.6C434.583 1068.13 438.508 1068.48 442.386 1069.17C450.126 1070.52 457.026 1073.37 461.62 1080.29C462.679 1081.89 464.206 1083.19 465.53 1084.64C468.302 1084.64 470.841 1084.73 473.364 1084.62C484.375 1084.15 495.402 1083.69 506.413 1083.11C519.963 1082.39 533.513 1081.57 547.047 1080.77C547.888 1080.73 548.792 1080.73 549.555 1080.4C550.443 1080.03 551.19 1079.32 552.452 1078.45C549.01 1075.8 546.144 1073.55 543.232 1071.37C519.994 1053.89 499.809 1033.45 483.035 1009.69C455.733 970.997 441.451 927.837 439.115 880.675C438.352 865.348 439.94 850.24 443.803 835.303C450.889 807.859 464.642 784.091 483.16 762.97C494.405 750.136 507.394 739.264 522.003 730.355C537.625 720.838 554.694 716.711 572.839 716.306C582.246 716.104 591.435 717.568 600.546 719.592C621.136 724.156 639.358 733.268 654.45 748.189C656.833 750.541 658.967 753.251 660.696 756.117C661.412 757.301 661.132 759.466 660.602 760.93C659.979 762.674 658.219 763.188 655.79 762.643C654.964 761.818 653.812 760.603 652.597 759.481C647.846 755.058 643.486 750.105 638.237 746.367C619.485 733.019 598.101 726.897 575.393 726.165C555.691 725.542 537.484 731.118 521.162 742.582C493.361 762.098 472.694 787.362 459.705 818.746C453.506 833.714 449.581 849.368 448.974 865.629C448.569 876.36 448.88 887.06 450.329 897.792C453.257 919.489 458.568 940.485 467.087 960.655C486.867 1007.44 519.48 1043.42 560.955 1071.86C568.976 1077.36 570.035 1077.27 580.066 1075.66C581.997 1075.35 583.959 1074.93 585.875 1075.09C587.619 1075.21 588.928 1076.49 589.426 1078.3C589.8 1079.71 588.787 1081.72 587.277 1082.55C586.545 1082.95 585.781 1083.42 584.972 1083.59C579.458 1084.81 573.945 1086.01 568.4 1087.11C553.106 1090.15 537.547 1090.85 522.066 1092C504.31 1093.33 486.493 1093.78 468.691 1094.57C465.312 1094.73 461.916 1094.84 458.723 1093.19C457.618 1091.15 456.777 1089 455.422 1087.24C453.724 1085.03 451.948 1082.42 449.581 1081.26C442.043 1077.53 434.022 1076.09 425.752 1078.76C419.429 1080.8 415.987 1087.14 417.482 1093.55C418.292 1096.96 419.958 1099.84 422.73 1102.03C425.892 1104.54 429.381 1106.16 433.493 1106.61C435.673 1106.85 437.869 1107.59 439.878 1108.54C441.467 1109.29 442.183 1110.97 441.965 1112.84C441.747 1114.73 440.61 1115.99 438.913 1116.55C437.604 1116.99 436.171 1117.2 434.801 1117.17C433.119 1117.14 431.437 1116.53 429.755 1116.53C425.721 1116.55 421.812 1117.3 418.837 1120.32C411.439 1127.81 413.682 1138.98 420.005 1143.53C425.004 1147.12 430.175 1149.65 436.545 1147.76C437.339 1147.53 438.212 1147.41 439.053 1147.39C441.202 1147.36 442.884 1148.25 443.896 1150.19C444.769 1151.89 444.364 1154.26 442.915 1155.68C442.121 1156.45 441.062 1156.97 440.252 1157.75C434.443 1163.21 433.602 1169.43 437.869 1175.99C439.099 1177.87 440.501 1179.69 442.121 1181.24C449.425 1188.2 460.016 1188.03 467.04 1180.86C468.411 1179.46 469.704 1177.89 470.7 1176.2C474.843 1169.15 479.562 1162.4 481.774 1154.34C482.942 1150.05 485.979 1147.72 490.496 1147.72C497.847 1147.72 505.214 1147.56 512.549 1147.93C538.528 1149.26 564.475 1150.83 590.454 1152.2C602.587 1152.84 614.75 1153.17 626.883 1153.76C642.131 1154.51 657.425 1154.9 672.61 1156.33C683.154 1157.33 693.511 1156.41 703.9 1155.47C708.338 1155.07 712.824 1153.84 716.982 1152.22C725.19 1149.03 728.321 1143.71 727.76 1135.05C727.635 1133.09 727.262 1131.13 726.903 1129.18C724.692 1117.13 720.346 1105.82 715.02 1094.84C714.163 1093.06 713.182 1091.32 712.559 1089.45C711.921 1087.52 711.843 1085.29 713.634 1084C714.833 1083.13 716.624 1083.05 717.699 1082.74C721.748 1085.51 725.175 1088 728.741 1090.27C738.756 1096.64 748.739 1103.09 758.909 1109.18C763.987 1112.22 769.313 1114.93 774.795 1117.14C784.218 1120.93 793.75 1124.51 803.422 1127.61C815.289 1131.41 827.36 1134.35 840.022 1133.59C844.243 1133.34 848.526 1133.81 852.746 1133.48C862.59 1132.72 872.433 1131.8 882.26 1130.71C892.711 1129.56 902.648 1126.08 912.631 1123.09C930.822 1117.62 948.468 1110.55 963.747 1098.98C991.999 1077.56 1016.3 1052.61 1031.93 1020.2C1034.27 1015.37 1036.7 1010.57 1039.13 1005.79C1046.74 990.887 1052.32 975.187 1057.19 959.222C1060.51 948.366 1061.65 937.12 1062.74 925.844C1064.25 910.315 1064.14 894.77 1063.88 879.226C1063.85 877.248 1063.64 875.27 1063.38 873.307C1061.37 859.024 1059.34 844.757 1053.89 831.253C1053.05 829.166 1052.57 826.939 1051.95 824.758C1045.81 803.373 1035.95 783.732 1024.08 765.042C1022.57 762.674 1020.86 760.338 1018.83 758.422C1010.46 750.416 1002.08 742.395 993.386 734.732C984.524 726.913 974.244 721.851 962.314 720.402C953.623 719.343 944.98 717.926 936.336 716.586C922.256 714.406 908.768 716.945 895.546 721.617C878.413 727.676 863.991 737.894 851.236 750.65C844.975 756.911 839.897 764.014 836.082 771.989C830.599 783.499 826.036 795.367 823.108 807.781C820.32 819.634 818.108 831.596 819.199 843.885C820.273 856.081 822.298 868.074 829.073 878.603C832.281 883.587 835.77 888.431 839.633 892.917C847.856 902.496 857.948 909.738 869.474 914.816C883.195 920.844 902.071 915.891 910.482 900.596C913.301 895.471 914.204 889.864 914.235 884.226C914.282 871.096 909.859 859.866 899.034 851.751C895.639 849.212 892.01 846.985 888.63 844.43C885.469 842.063 882.338 839.617 879.488 836.892C877.23 834.742 875.548 832.063 875.221 828.792C874.068 817.469 876.342 807.438 885.811 799.962C889.845 796.769 894.159 794.152 899.034 792.517C908.441 789.371 918.113 789.729 927.567 791.473C943.858 794.464 957.564 802.781 969.541 814.011C971.394 815.74 973.076 817.687 974.587 819.727C995.659 848.153 1003.71 880.098 998.681 914.941C996.438 930.547 992.996 946.076 987.436 960.982C984.477 968.91 981.86 976.994 978.636 984.812C973.045 998.425 966.706 1011.68 957.626 1023.41C950.836 1032.18 942.597 1039.51 934.467 1046.97C920.356 1059.93 903.271 1066.13 884.675 1068.36C875.423 1069.47 866 1069.06 856.78 1067.38C848.728 1065.91 840.785 1063.94 832.795 1062.13C817.875 1058.77 803.344 1054.25 789.747 1047.04C783.517 1043.73 776.96 1040.92 771.042 1037.12C759.984 1030.01 752.633 1020.45 753.427 1006.38C753.816 999.609 754.143 992.834 754.486 986.058C755.296 970.53 756.09 955.001 756.916 939.472C756.978 938.351 757.165 937.229 757.258 936.092C758.613 918.336 760.607 900.596 761.199 882.824C762.32 848.604 761.635 814.401 758.567 780.259C756.635 758.827 753.147 737.66 747.882 716.804C741.325 690.84 731.809 666.215 715.923 644.347C701.688 624.753 684.057 609.271 662.175 598.758C644.342 590.207 626.509 581.671 608.661 573.151C601.527 569.74 594.488 566.064 587.152 563.121C575.331 558.37 563.868 552.888 552.732 546.751C543.823 541.845 535.024 536.736 526.224 531.643C513.686 524.4 502.037 515.974 491.524 505.974C486.602 501.301 481.571 496.738 476.556 492.174C461.402 478.39 450.111 462.098 444.052 442.364C443.6 440.915 443.429 438.968 441.077 438.703C436.156 442.956 433.446 449.918 426.531 451.88C422.076 449.077 421.282 446.896 423.478 443.781C424.288 442.628 425.269 441.585 426.219 440.557C433.415 432.831 438.648 423.844 443.538 414.53C454.877 392.958 460.733 369.719 464.47 345.92C467.788 324.846 467.087 303.632 464.424 282.496C464.143 280.3 463.91 277.98 461.729 276.204C459.471 276.936 457.026 277.59 454.674 278.478C445.968 281.796 437.09 284.755 428.649 288.664C402.234 300.891 376.474 314.426 350.776 328.102C348.798 329.145 346.944 330.422 345.231 331.466C340.901 339.487 337.241 347.4 334.625 355.81C332.865 361.464 330.591 366.963 328.519 372.523C325.342 381.043 319.657 387.476 312.104 392.475C295.657 403.347 277.637 409.172 257.935 409.717C254.851 409.795 251.752 409.873 248.653 409.951C231.193 422.816 213.423 434.919 199.483 452.223C198.362 451.943 196.758 451.989 195.87 451.211C194.951 450.385 194.204 448.718 194.359 447.535C194.593 445.666 195.294 443.625 196.415 442.146C198.642 439.233 201.072 436.429 203.813 434C211.85 426.882 220.089 419.966 228.25 412.973C230.15 411.353 232.066 409.733 233.825 408.238C220.058 390.45 207.473 372.414 195.59 353.988C190.575 353.988 185.949 350.593 180.918 354.642C180.467 361.589 179.143 368.816 181.136 375.654C183.488 376.993 185.388 378.083 186.868 378.925C188.114 382.336 187.179 384.625 184.89 386.214C181.65 388.472 178.302 390.622 174.86 392.553C164.97 398.098 155.719 404.593 146.67 411.384C144.707 412.848 142.293 413.985 141.483 416.633C142.029 416.96 142.527 417.49 142.979 417.474C147.215 417.318 151.436 417.085 155.656 416.835C159.597 416.602 163.537 416.259 167.493 416.103C170.39 415.994 173.131 416.555 175.14 418.923C175.857 423.985 175.903 424 174.548 426.181C173.801 427.38 172.929 428.501 172.056 429.607C165.204 438.298 158.989 447.363 154.878 457.737C154.395 458.952 153.118 459.839 152.214 460.867H142.433C141.047 468.858 140.066 476.645 141.935 484.495C144.52 495.32 150.61 503.498 161.045 507.843C166.699 510.195 172.477 510.756 177.585 506.239C170.592 486.972 170.374 485.819 171.994 476.723C174.071 475.415 176.397 475.29 178.972 476.349C179.563 479.979 180.124 483.872 180.841 487.735C182.102 494.635 185.124 500.632 190.621 505.102C198.035 511.114 206.585 514.665 216.024 515.927C223.484 516.924 230.695 515.756 237.423 512.267C248.294 506.628 255.381 497.859 258.745 486.1C258.963 485.368 258.776 484.511 258.776 483.203C253.013 482.019 247.453 482.611 241.955 483.717C237.252 484.667 232.626 485.991 228.016 487.299C225.805 487.922 223.686 488.607 221.444 487.283C219.59 485.399 219.699 483.343 221.335 480.804C227.736 476.583 236.006 476.536 242.999 473.702C243.419 472.829 243.824 472.347 243.871 471.817C244.743 461.444 252.328 457.083 260.505 453.391C262.405 452.534 264.414 453.158 265.863 454.855C267.311 456.553 267.56 458.36 266.345 460.291C265.66 461.397 264.99 462.534 264.508 463.359C266.937 466.848 268.993 469.823 271.002 472.72C272.404 472.876 273.525 473.125 274.631 473.125C287.122 473.079 299.395 475.212 311.699 476.91C313.365 477.144 315.016 477.595 316.605 478.172C318.707 478.935 319.891 480.82 319.704 482.72C319.517 484.651 317.944 486.318 315.826 486.583C314.44 486.754 313.007 486.832 311.621 486.692C308.522 486.38 305.453 485.851 302.37 485.523C293.383 484.573 284.396 483.592 275.394 482.813C273.556 482.658 271.656 483.327 270.099 483.576C268.697 487.626 267.732 491.177 266.236 494.511C264.632 498.108 262.794 501.675 260.567 504.899C258.496 507.89 255.739 510.398 253.356 513.186C250.849 516.129 246.643 517.22 244.572 520.709C250.241 525.444 257.078 528.216 263.324 528.076C269.99 527.92 276.22 526.113 281.328 521.659C284.085 519.26 286.515 516.456 288.991 513.762C290.72 511.893 292.262 509.837 295.595 509.37C296.622 510.008 297.993 510.849 298.959 511.472C300.033 514.385 299.519 516.503 297.9 518.326C295.283 521.285 292.838 524.462 289.879 527.063C278.322 537.187 265.24 540.349 250.553 534.789C247.157 533.496 243.856 531.954 239.448 530.069H239.464ZM203.424 261.205C207.551 257.498 210.853 253.277 214.419 249.321C237.906 223.232 264.881 201.566 296.109 185.367C301.357 182.642 306.917 180.477 312.368 178.187C314.814 177.159 317.321 176.879 319.393 179.137C320.654 180.539 319.424 182.984 321.542 184.589C322.944 183.203 324.127 182.05 325.264 180.866C328.208 177.829 331.027 174.62 334.111 171.739C354.887 152.27 377.891 136.055 403.745 123.969C405.209 123.283 406.517 122.271 407.623 121.57C406.097 111.835 404.399 102.677 403.309 93.4407C402.187 84.0643 401.674 74.6099 400.833 64.5793C399.555 65.4827 398.668 65.7942 398.325 66.4016C396.97 68.8781 395.849 71.4793 394.525 73.9713C392.391 77.9587 390.335 81.9927 387.921 85.8087C385.772 89.1886 382.314 89.5625 379.137 87.1794C378.467 86.681 377.891 86.0268 377.284 85.4349C365.727 74.1427 353.018 64.2834 339.998 54.7356C317.134 37.9763 291.748 26.6529 264.741 18.6159C263.744 18.32 262.623 18.3979 260.162 18.1798C262.654 20.594 264.149 22.1204 265.722 23.5378C274.787 31.6371 283.882 39.7052 292.978 47.7733C296.28 50.7015 297.65 54.0658 295.672 58.0532C293.835 60.2649 291.607 60.3272 289.302 60.1091C281.141 59.3459 272.996 58.4581 264.835 57.8507C260.334 57.508 255.801 57.4613 251.285 57.5859C245.07 57.7572 238.856 58.131 232.657 58.5983C224.481 59.1902 216.288 59.6419 208.174 60.701C186.292 63.5825 164.861 68.5978 143.602 74.4542C141.53 75.0305 139.537 75.9339 137.138 76.8372C138.01 77.8652 138.415 78.7063 139.069 79.0022C140.611 79.6876 142.262 80.0925 143.866 80.6532C153.196 83.8774 162.556 87.0704 171.854 90.3879C174.455 91.3225 177.383 92.0701 178.224 95.45C178.255 99.0324 175.545 100.092 172.773 100.855C159.441 104.577 147.994 111.711 137.372 120.309C130.114 126.181 122.95 132.162 115.707 138.049C97.7031 152.706 79.1381 166.521 58.0967 176.708C49.6708 180.788 41.1671 184.495 31.8846 186.1C31.1682 186.224 30.4984 186.707 29.1279 187.361C30.8099 188.342 31.9002 189.184 33.1461 189.666C39.1891 192.018 45.2321 194.401 51.3685 196.535C57.4893 198.669 63.6413 200.818 69.9023 202.423C83.5769 205.927 97.3604 209.011 111.487 210.195C112.873 210.304 114.306 210.522 115.598 211.005C118.838 212.22 119.601 216.456 116.922 218.575C115.396 219.789 113.62 220.74 111.876 221.643C102.812 226.362 94.557 232.297 86.1934 238.106C85.3212 238.714 84.2777 239.337 85.2745 241.128C86.3959 241.175 87.782 241.362 89.1526 241.284C104.727 240.427 120.224 241.611 135.736 242.748C137.699 242.888 139.661 243.231 141.608 243.558C146.903 244.43 152.214 245.209 157.463 246.268C169.642 248.729 181.822 251.236 193.113 256.766C196.384 258.354 199.779 259.663 203.408 261.22L203.424 261.205ZM209.186 327.634C215.463 325.08 221.179 322.681 226.942 320.423C245.88 313.025 265.286 306.997 284.91 301.763C297.432 298.415 310.126 295.689 322.726 292.574C326.277 291.702 329.392 292.325 332.429 294.209C334.812 295.689 337.272 297.044 339.733 298.461C342.241 297.262 344.546 296.234 346.804 295.082C360.588 287.948 374.278 280.627 388.17 273.681C405.847 264.849 423.649 256.267 441.451 247.732C446.778 245.178 452.338 243.075 457.805 240.801C460.39 239.726 463.209 239.103 465.53 236.673C465.763 234.757 465.919 232.515 466.308 230.318C468.349 218.917 469.345 207.407 470.373 195.865C471.432 183.903 470.654 172.159 469.439 160.384C468.831 154.497 467.959 148.578 466.495 142.862C464.969 136.881 462.991 130.915 460.437 125.308C457.368 118.58 452.867 116.929 445.874 118.829C444.784 119.125 443.71 119.499 442.65 119.841C420.628 127.146 399.119 135.619 379.604 148.485C360.447 161.116 342.038 174.636 327.32 192.532C326.121 193.996 324.392 195.009 322.928 196.208C316.885 194.666 311.699 191.426 305.204 191.006C296.077 195.383 287.122 200.787 278.509 206.644C256.923 221.316 237.158 238.106 219.98 257.856C217.192 261.049 214.388 264.226 211.585 267.404C209.513 269.771 207.286 271.921 203.471 272.388C199.359 270.239 195.013 267.653 190.403 265.659C185.824 263.681 181.386 261.049 176.417 260.644C162.073 274.101 142.823 302.745 139.147 316.171C148.803 320.703 158.943 323.99 169.393 326.965C182.523 320.127 195.636 322.012 209.124 327.603L209.186 327.634ZM72.8303 825.148C73.5468 827.936 72.3631 831.3 74.0452 834.602C78.9668 844.197 86.2245 850.769 96.6907 853.589C100.226 854.539 103.839 855.162 107.515 855.956C112.546 860.021 117.701 863.993 122.622 868.214C133.385 877.435 144.707 885.83 156.871 893.104C162.447 896.437 167.945 899.91 173.489 903.29C186.292 911.109 199.748 917.651 213.376 923.834C215.105 924.613 217.067 924.893 219.107 925.454C223.359 921.794 227.455 918.352 231.458 914.8C243.918 903.726 256.315 892.559 268.791 881.516C275.566 875.519 282.512 869.74 290.346 865.115C291.981 864.149 293.352 862.716 295.143 861.252C294.426 854.445 293.71 847.748 293.025 841.191C284.334 834.477 278.073 826.02 271.656 817.796C263.495 807.329 255.973 796.364 248.154 785.633C247.235 784.371 246.659 782.455 244.136 783.234C243.902 784.184 243.622 785.259 243.357 786.349C240.18 799.884 235.305 812.827 229.527 825.428C224.886 835.552 218.671 844.586 209.732 851.517C203.128 856.641 195.995 858.511 187.538 856.906C170.063 853.589 155.205 845.411 141.919 833.979C140.035 832.359 138.602 830.241 137.403 828.87C137.403 826.596 137.107 825.117 137.45 823.793C139.365 816.675 136.967 810.413 133.79 804.323C130.986 798.965 126.578 795.757 120.489 795.009C116.564 794.526 112.639 794.059 108.73 793.514C108.216 793.436 107.764 793 106.97 792.548C106.658 791.785 106.238 790.773 105.973 790.118C107.25 785.975 108.948 782.299 109.477 778.468C111.097 766.802 106.736 756.818 99.572 747.971C97.4694 745.385 94.6971 743.236 91.956 741.289C88.4673 738.797 84.4802 737.348 80.1037 737.224C73.0017 737.037 67.5817 740.557 65.1209 747.348C64.2799 749.7 63.7347 752.27 63.6569 754.746C63.3765 763.36 66.8185 770.665 72.0672 777.269C73.1107 778.593 74.4657 779.73 75.2756 781.162C76.6306 783.546 76.5838 786.256 74.9485 788.374C74.0919 789.48 72.1762 789.76 71.3352 790.165C66.2734 787.19 62.0527 784.309 57.5049 782.128C46.8362 777.019 36.1676 777.596 25.7326 783.032C20.1725 785.929 17.1977 790.586 17.8207 796.831C18.5838 804.339 21.434 811.021 27.5704 815.927C37.4136 823.808 48.6273 824.758 60.4796 822.5C62.1306 822.188 63.7347 821.534 65.4012 821.347C68.4383 820.989 70.9614 821.97 72.8148 825.163L72.8303 825.148ZM268.837 397.6C271.002 398.176 271.578 398.534 272.061 398.441C285.237 395.808 297.448 390.949 308.428 383.036C312.945 379.781 316.418 375.841 318.505 370.763C320.639 365.53 322.694 360.265 324.439 354.892C327.164 346.543 330.638 338.522 334.407 330.609C336.571 326.077 339.453 322.806 344.047 320.485C366.475 309.099 388.715 297.387 411.096 285.908C427.73 277.372 445.376 271.282 462.944 265.052C465.327 264.211 467.835 263.79 469.719 263.307C473.706 263.821 475.856 266.018 477.896 268.447C480.621 271.687 483.378 274.927 486.306 277.98C488.44 280.207 490.745 282.387 494.296 282.699C498.049 281.5 502.753 281.842 505.167 276.827C501.086 267.466 496.928 257.903 490.807 249.367C488.689 246.392 486.337 243.495 482.335 242.171C481.462 242.39 480.341 242.545 479.329 242.95C470.124 246.533 460.717 249.726 451.777 253.869C427.418 265.145 403.184 276.687 379.464 289.287C367.487 295.642 355.059 301.109 342.895 307.121C339.437 308.835 336.462 308.523 333.347 306.467C331.011 304.925 328.519 303.617 326.323 302.34C323.037 302.807 320.187 302.947 317.461 303.617C283.711 311.887 250.132 320.766 217.846 333.865C206.617 338.413 208.672 337.649 199.296 334.581C190.902 331.824 182.694 331.326 174.657 335.578C171.979 336.995 169.331 337.167 166.481 336.201C163.008 335.017 159.457 334.067 156.015 332.79C147.012 329.457 138.057 325.968 129.039 322.681C127.591 322.152 125.909 322.308 124.102 322.121C121.906 328.974 122.436 335.391 124.102 341.699C128.105 356.885 135.051 370.747 143.913 383.644C145.813 386.416 148.29 388.815 150.626 391.276C151.56 392.257 152.853 392.896 154.239 393.877C157.261 391.977 160.157 390.279 162.914 388.363C165.655 386.448 169.035 385.388 171.169 382.304C171.169 375.576 171.122 368.8 171.2 362.025C171.231 359.486 171.293 356.916 171.729 354.424C173.022 347.119 175.685 344.705 182.974 344.269C186.074 344.082 189.189 344.347 192.288 344.378C198.191 344.44 202.38 347.104 205.417 352.213C214.092 366.838 224.932 379.953 234.822 393.737C235.959 395.326 237.408 396.712 238.7 398.176C242.423 399.017 245.896 399.827 249.462 397.709C254.587 394.687 256.424 393.27 257.717 390.341C255.412 390.341 253.169 390.497 250.942 390.295C248.715 390.108 246.519 389.578 244.51 389.22C243.108 387.74 241.769 386.634 240.803 385.279C233.343 374.626 225.945 363.925 218.531 353.241C218.204 352.773 217.955 352.259 217.721 351.745C216.569 349.269 217.41 346.403 219.824 345.204C221.584 344.331 223.515 343.802 225.306 343.007C248.325 332.681 271.968 324.317 296.872 319.893C302.697 318.865 308.584 318.118 314.471 317.417C317.695 317.027 320.67 317.791 323.333 321.28C323.333 322.775 323.754 325.08 323.255 327.183C321.573 334.316 319.751 341.45 317.617 348.459C315.639 354.938 313.116 361.246 310.951 367.663C309.627 371.604 307.509 374.688 303.553 376.401C300.423 377.756 297.713 379.657 295.501 382.413C294.146 384.096 291.997 385.248 290.05 386.323C286.343 388.379 282.496 390.17 278.743 392.148C275.784 393.706 272.902 395.372 268.853 397.615L268.837 397.6ZM296.342 1034.26C293.212 1029.22 288.726 1026.84 283.462 1026.59C277.98 1026.32 272.887 1028.25 268.557 1031.71C267.498 1032.57 266.672 1033.83 266.018 1035.06C262.794 1041.15 264.134 1047.91 269.6 1052.63C271.298 1054.09 273.354 1055.14 275.145 1056.49C276.983 1057.89 277.653 1059.95 277.045 1061.71C276.407 1063.55 274.506 1065.04 272.591 1065.06C271.469 1065.06 270.348 1064.89 269.242 1064.71C267.031 1064.37 264.819 1063.66 262.607 1063.67C254.244 1063.7 249.307 1070.85 251.845 1078.76C252.858 1081.93 254.649 1084.26 257.483 1085.85C261.237 1087.95 265.24 1089.17 269.569 1089.28C271.516 1089.32 273.447 1089.57 275.581 1089.74C276.298 1091.4 276.952 1092.86 277.59 1094.36C276.048 1096.55 274.693 1098.47 272.622 1101.41C279.771 1099.57 286.047 1100.07 291.592 1097.53C293.383 1089.2 296.747 1044.42 296.342 1034.3V1034.26ZM419.086 1068.39C418.915 1067.25 418.915 1066.37 418.619 1065.6C413.464 1051.87 408.293 1038.13 403.044 1024.42C402.577 1023.22 401.471 1022.27 400.614 1021.13C393.03 1023.46 385.476 1024.65 378.919 1028.11C376.38 1036.57 373.935 1060.56 373.063 1069.5C372.985 1070.26 373.421 1071.07 373.639 1071.93C374.542 1072.19 375.321 1072.64 376.1 1072.61C389.354 1071.97 402.608 1071.27 415.862 1070.56C416.392 1070.52 416.968 1070.28 417.435 1069.98C417.887 1069.7 418.229 1069.23 419.102 1068.38L419.086 1068.39ZM286.701 332.182C286.078 333.569 285.705 334.316 285.424 335.111C280.658 348.35 275.877 361.573 271.189 374.828C270.893 375.669 271.36 376.775 271.501 378.068C275.721 376.651 279.911 376.915 282.854 373.894C290.891 356.075 296.763 339.036 297.65 330.734C293.912 329.612 290.595 331.559 286.717 332.182H286.701ZM397.297 1011.95C397.39 1010.89 397.624 1010.28 397.468 1009.81C394.276 1000.22 391.067 990.607 387.75 981.059C387.563 980.529 386.488 980.296 385.273 979.626C383.732 991.759 381.473 1003.32 380.726 1015.11C380.694 1015.5 381.349 1015.93 381.925 1016.63C387.283 1015.9 392.438 1014.05 397.313 1011.96L397.297 1011.95ZM245.195 374.174C249.961 364.844 253.107 355.265 257.296 346.169C257.935 344.799 259.056 343.257 257.888 341.169C254.026 341.31 250.662 343.054 247.204 345.095C244.354 352.01 241.504 358.957 238.607 366.028C240.273 369.003 241.955 371.791 245.211 374.19L245.195 374.174ZM164.113 258.261C155.407 255.317 150.299 254.663 145.548 255.691C146.343 263.089 148.445 268.806 152.152 273.354C156.015 268.494 159.815 263.681 164.113 258.261ZM256.969 472.238C256.175 470.555 255.537 469.278 253.855 470.353C253.496 470.571 253.169 471.428 253.325 471.755C254.057 473.281 255.256 473.312 256.969 472.238Z" fill="#353535"/>
<path d="M345.714 411.991C345.683 414.265 344.374 415.823 342.396 416.43C339.453 417.349 336.385 417.91 333.347 418.533C322.585 420.776 311.745 422.63 301.077 425.277C276.843 431.29 253.979 440.791 232.455 453.469C229.542 455.182 226.801 457.176 223.936 458.967C222.767 459.699 221.506 460.665 220.229 460.774C219.014 460.867 217.534 460.229 216.506 459.466C215.292 458.562 215.136 456.942 215.774 455.603C216.366 454.357 217.207 453.095 218.251 452.239C220.416 450.447 222.721 448.796 225.104 447.301C252.92 429.981 282.823 417.941 315.094 411.945C322.57 410.559 330.015 408.97 337.506 407.599C339.141 407.303 340.886 407.334 342.537 407.552C344.421 407.786 345.792 409.92 345.714 411.991Z" fill="#353535"/>
<path d="M449.332 187.782C448.974 204.448 445.142 218.824 438.632 232.499C437.308 235.271 435.58 237.95 433.602 240.302C429.163 245.567 423.634 246.891 417.653 243.651C407.763 238.309 399.555 231.097 394.712 220.646C392.578 216.036 392.765 211.254 394.244 206.566C399.166 191.006 420.332 169.699 433.103 165.898C433.913 165.649 434.661 165.213 435.47 164.979C440.75 163.468 445.08 165.509 446.887 170.836C447.961 174.013 448.475 177.408 448.943 180.757C449.332 183.545 449.27 186.395 449.332 187.782ZM423.073 235.365C426.951 233.979 428.073 231.315 429.381 228.839C432.963 222.048 435.268 214.774 437.09 207.391C439.053 199.417 439.94 191.271 439.333 183.031C439.099 179.994 439.162 176.785 436.171 174.153C433.524 175.664 430.689 176.957 428.228 178.763C421.578 183.623 415.94 189.542 410.987 196.13C408.09 199.993 405.629 204.074 403.947 208.622C402.686 212.002 402.982 215.101 404.695 218.356C408.853 226.207 415.551 231.113 423.089 235.349L423.073 235.365Z" fill="#353535"/>
<path d="M44.3755 786.209C56.4614 786.209 65.5103 797.641 59.9657 808.061C56.3212 814.899 46.8051 817.874 40.3105 813.653C34.5634 809.915 31.2149 804.588 31.9157 797.283C32.2584 793.592 33.8003 790.742 37.0398 789.122C39.7654 787.767 42.709 786.863 44.3755 786.225V786.209ZM46.7428 795.913C45.5747 796.24 45.014 796.333 44.5156 796.536C42.5065 797.361 41.3851 798.872 41.681 801.068C42.0237 803.607 44.2353 805.741 46.5715 806.037C48.5806 806.286 50.3717 805.351 51.3996 803.513C52.3185 801.862 52.1784 800.149 50.9324 798.919C49.6241 797.626 47.9265 796.738 46.7428 795.913Z" fill="#353535"/>
<path d="M82.5178 752.472C86.8164 750.339 90.8346 750.089 94.8218 752.41C98.9958 754.84 101.207 758.718 102.204 763.219C103.341 768.297 101.815 772.783 97.6252 775.929C93.3266 779.153 88.405 780.212 83.3744 777.907C81.7079 777.144 80.275 775.477 79.216 773.904C74.8551 767.331 75.2911 760.618 80.3062 754.575C81.0226 753.718 81.9259 753.018 82.5178 752.457V752.472ZM89.5575 760.696C88.1558 761.413 86.8475 762.098 85.8508 762.612C85.4458 765.867 85.6794 768.266 88.7944 769.824C89.9625 769.185 91.333 768.437 92.361 767.892C93.2643 764.886 92.2675 763.064 89.5731 760.712L89.5575 760.696Z" fill="#353535"/>
<path d="M162.135 381.775C160.048 384.89 157.915 386.105 155.158 385.825C152.51 385.56 150.314 384.283 148.819 382.086C147.402 379.999 145.984 377.865 144.91 375.607C140.455 366.215 136.157 356.745 131.749 347.337C130.41 344.472 129.725 341.497 129.896 338.35C130.083 334.846 132.326 332.868 135.97 332.696C138.337 332.587 140.455 333.242 142.309 334.581C147.558 338.366 152.759 342.197 157.915 346.107C160.22 347.851 161.964 350.063 161.995 353.147C162.089 362.975 162.229 372.788 162.12 381.775H162.135ZM151.623 365.389C152.682 362.742 152.915 360.296 151.233 357.789C147.542 360.654 147.589 361.184 151.623 365.389Z" fill="#353535"/>
</svg>
