<svg width="409" height="342" viewBox="0 0 409 342" fill="none" xmlns="http://www.w3.org/2000/svg">
<g clip-path="url(#clip0_417_81)">
<path d="M145.688 326.078C139.356 324.381 133.061 322.38 126.817 320.1C83.5706 304.197 49.0713 272.48 29.7015 230.748C10.3318 189.016 8.41942 142.298 24.2964 99.2006C37.1197 64.3867 62.7699 36.6505 96.5381 21.1126C130.306 5.57481 168.132 4.09152 203.067 16.9355C231.332 27.3185 253.891 48.0608 266.537 75.3384C279.182 102.616 280.451 133.138 270.08 161.327C261.652 184.195 244.802 202.4 222.628 212.617C200.454 222.834 175.598 223.793 152.646 215.373C133.969 208.503 119.062 194.8 110.699 176.783C102.336 158.766 101.498 138.585 108.363 119.951C113.973 104.734 125.186 92.5911 139.947 85.8039C154.708 79.0168 171.277 78.355 186.526 83.969C212.428 93.4941 225.763 122.237 216.275 148.057C208.422 169.37 184.631 180.322 163.217 172.472C145.422 165.928 136.258 146.19 142.791 128.457C148.258 113.606 164.829 105.955 179.752 111.437C185.869 113.683 190.736 118.156 193.462 124.055C196.188 129.954 196.473 136.548 194.236 142.623C190.282 153.34 178.341 158.86 167.566 154.894C163.072 153.24 159.491 149.944 157.474 145.605C155.457 141.267 155.271 136.408 156.901 131.923C158.132 128.589 160.383 125.911 163.179 124.144C159.545 125.844 156.538 128.904 155.052 132.933C150.999 143.938 156.691 156.183 167.713 160.237C182.347 165.619 198.63 158.116 204.004 143.532C211.028 124.469 201.164 103.218 182.035 96.1826C170.048 91.7793 157.041 92.272 145.441 97.6138C133.841 102.956 125.02 112.481 120.624 124.427C114.974 139.791 115.658 156.425 122.545 171.282C129.453 186.145 141.731 197.458 157.127 203.112C176.818 210.321 198.096 209.505 217.124 200.76C236.132 192.009 250.575 176.395 257.787 156.798C266.966 131.884 265.857 104.889 254.66 80.7859C243.464 56.6833 223.534 38.3309 198.534 29.1378C166.882 17.5102 132.592 18.8398 101.984 32.9322C71.3822 47.0037 48.1399 72.1489 36.5311 103.692C21.863 143.54 23.642 186.717 41.536 225.289C59.43 263.861 91.3003 293.189 131.286 307.881C181.658 326.39 236.233 324.248 284.943 301.837C333.653 279.425 370.64 239.422 389.14 189.229L401.395 193.727C381.702 247.196 342.302 289.811 290.431 313.667C244.6 334.76 193.858 339.008 145.641 326.088L145.688 326.078ZM169.084 136.693C169.131 137.02 169.227 137.338 169.37 137.646C169.752 138.49 170.497 139.161 171.379 139.488C172.056 139.737 172.833 139.698 173.498 139.404C174.169 139.089 174.701 138.535 174.955 137.839C175.043 137.593 175.09 137.336 175.067 137.082L170.058 135.246C169.668 135.523 169.355 135.934 169.184 136.405C169.161 136.489 169.133 136.594 169.105 136.698L169.084 136.693Z" fill="white"/>
</g>
<defs>
<clipPath id="clip0_417_81">
<rect width="409" height="342" fill="white"/>
</clipPath>
</defs>
</svg>
