<svg width="50" height="50" viewBox="0 0 50 50" fill="none" xmlns="http://www.w3.org/2000/svg">
<g clip-path="url(#clip0_517_140)">
<path d="M49.9966 23.2523V26.7669C49.9639 26.9051 49.9196 27.0408 49.9014 27.1803C49.8218 27.8246 49.7788 28.474 49.6705 29.113C49.2754 31.4448 48.575 33.6827 47.5448 35.8137C45.9198 39.1731 43.6546 42.0305 40.7711 44.3922C39.0666 45.789 37.2056 46.9392 35.1908 47.8351C32.619 48.9789 29.939 49.6948 27.1286 49.9087C27.006 49.9178 26.8847 49.9687 26.7635 50H23.2488C23.1432 49.97 23.0402 49.9257 22.9319 49.9126C22.3529 49.8409 21.7699 49.7913 21.1922 49.7066C18.6518 49.3362 16.2326 48.5642 13.9386 47.4178C10.1736 45.536 7.06325 42.8808 4.62322 39.4496C1.85194 35.5541 0.337844 31.2088 0.0444147 26.4461C-0.0625241 24.709 0.0248527 22.9732 0.293504 21.2452C0.708217 18.577 1.51156 16.0404 2.7544 13.6434C5.22573 8.88205 8.84339 5.26309 13.5969 2.78002C16.7216 1.14594 20.0576 0.260438 23.567 0.0465607C25.4202 -0.0668987 27.2734 0.0256946 29.107 0.338686C31.4701 0.741663 33.7445 1.44329 35.8937 2.51137C41.2237 5.15875 45.1752 9.17287 47.7078 14.5589C48.948 17.1959 49.6823 19.9776 49.9066 22.8884C49.9157 23.011 49.9666 23.1323 49.9979 23.2536L49.9966 23.2523ZM25.0081 36.3497C29.3182 36.3497 33.6297 36.3536 37.9399 36.3471C39.2949 36.3457 40.2534 35.6963 40.8298 34.4808C41.0567 34.0035 41.1141 33.4884 41.1141 32.9615C41.1115 27.6589 41.1128 22.355 41.1115 17.0524C41.1115 16.939 41.1115 16.8242 41.1076 16.7107C41.0372 15.2319 40.0565 14.0464 38.6141 13.7282C38.3168 13.663 37.9998 13.6708 37.6934 13.6708C29.2348 13.6682 20.7762 13.6682 12.3163 13.6682C12.1859 13.6682 12.0555 13.6682 11.9264 13.6708C10.9352 13.7008 10.1488 14.1312 9.54892 14.9058C9.07161 15.5227 8.89816 16.2347 8.89947 17.0055C8.90207 22.3407 8.90077 27.6772 8.90077 33.0124C8.90077 33.1102 8.89816 33.208 8.90468 33.3045C8.99206 34.4717 9.50589 35.3781 10.5348 35.9675C11.0578 36.2675 11.6238 36.3523 12.2211 36.351C16.483 36.3431 20.7449 36.3471 25.0068 36.3471L25.0081 36.3497Z" fill="#6457A6"/>
<path d="M11.4634 17.5154C12.0385 17.9692 12.5197 18.3461 12.9997 18.7269C15.9274 21.0509 18.8539 23.3762 21.7817 25.7014C22.5446 26.3078 23.3101 26.913 24.0691 27.5246C24.4734 27.8493 24.9155 28.0163 25.4241 27.8298C25.6171 27.758 25.7997 27.6355 25.9627 27.505C29.3248 24.8394 32.6842 22.1685 36.0437 19.499C36.8431 18.8639 37.6451 18.2314 38.5019 17.5545C38.5228 17.728 38.5489 17.8453 38.5489 17.9627C38.5515 22.9549 38.5515 27.9471 38.5489 32.9407C38.5489 33.0854 38.5332 33.2328 38.5006 33.3736C38.4433 33.624 38.2672 33.7584 38.0181 33.7857C37.889 33.8001 37.7586 33.7923 37.6282 33.7923C29.2204 33.7923 20.8127 33.7923 12.405 33.7923C11.6121 33.7923 11.4647 33.6475 11.4634 32.8624C11.4634 27.9185 11.4634 22.9745 11.4634 18.0318V17.5154Z" fill="#6457A6"/>
<path d="M14.1095 16.2478H36.011C32.3086 19.1873 28.6857 22.0655 25.072 24.9359C24.7055 24.7768 14.3768 16.5856 14.1095 16.2478Z" fill="#6457A6"/>
</g>
<defs>
<clipPath id="clip0_517_140">
<rect width="50" height="50" fill="white"/>
</clipPath>
</defs>
</svg>
