<svg width="50" height="50" viewBox="0 0 50 50" fill="none" xmlns="http://www.w3.org/2000/svg">
<g clip-path="url(#clip0_517_141)">
<path d="M49.9936 24.3025V25.5726C49.961 25.7109 49.8996 25.8493 49.8996 25.9877C49.9009 26.8191 49.803 27.6402 49.6986 28.4638C49.5198 29.8722 49.1974 31.248 48.764 32.5964C48.2067 34.3364 47.46 35.9928 46.5359 37.5735C45.6052 39.1686 44.5114 40.641 43.2635 41.9946C41.7115 43.6784 39.9402 45.1038 37.9861 46.2969C37.3074 46.7119 36.6104 47.1074 35.8937 47.4507C34.5428 48.0969 33.1513 48.6451 31.7011 49.038C29.8907 49.5288 28.0554 49.8538 26.1758 49.9034C26.0048 49.9073 25.8351 49.9674 25.6641 50H24.2961C24.1421 49.9661 23.9881 49.9047 23.8327 49.9047C22.7232 49.8956 21.6268 49.7598 20.5395 49.5601C17.9772 49.0915 15.5454 48.2496 13.2428 47.0187C11.3658 46.0149 9.64933 44.7892 8.07383 43.3691C6.64322 42.0794 5.39926 40.6123 4.32369 39.0159C3.21288 37.366 2.29656 35.613 1.59039 33.7425C0.540927 30.9543 0.0618807 28.067 0.00183682 25.1053C-0.0164374 24.1994 0.106261 23.2909 0.165 22.3837C0.230265 21.3747 0.418228 20.3853 0.644046 19.4024C1.15834 17.1703 1.95588 15.0479 3.05886 13.0351C4.05741 11.2129 5.26221 9.53953 6.6628 8.01363C8.066 6.48643 9.65847 5.17591 11.3984 4.0429C13.0431 2.97125 14.787 2.11236 16.6314 1.44796C19.3699 0.463764 22.205 0.0473723 25.1015 0.000381394C25.4565 -0.00483982 25.8142 0.0447617 26.1705 0.0747836C27.0438 0.147881 27.9249 0.180513 28.7903 0.309738C31.3187 0.685665 33.7335 1.45188 36.0243 2.58227C37.6911 3.40592 39.2458 4.41622 40.6933 5.58447C41.658 6.36243 42.5704 7.19782 43.3979 8.11806C44.4761 9.31633 45.459 10.5929 46.2892 11.9778C46.699 12.6605 47.0998 13.3536 47.4418 14.0715C48.0866 15.4238 48.6374 16.814 49.0303 18.2642C49.5211 20.0746 49.8448 21.9112 49.8957 23.7908C49.9009 23.9618 49.9597 24.1328 49.9923 24.3025H49.9936ZM26.3246 36.5684C26.335 36.3583 26.352 36.1664 26.352 35.9758C26.3546 33.42 26.3585 30.8643 26.3494 28.3085C26.3481 27.8125 26.4264 27.3347 26.5726 26.8687C26.7253 26.3792 26.9824 25.9446 27.3988 25.6313C28.3165 24.9408 29.3215 24.9304 30.358 25.2958C30.5342 25.3585 30.6908 25.4969 30.837 25.6222C31.2508 25.9733 31.5001 26.4419 31.5862 26.9601C31.6972 27.6297 31.7794 28.3137 31.7873 28.9912C31.8108 31.3355 31.7951 33.6798 31.7977 36.0228C31.7977 36.2095 31.8251 36.3961 31.8434 36.6285H33.4528C33.9736 36.6285 34.4945 36.6337 35.0153 36.6272C35.5296 36.6206 36.0465 36.6585 36.5908 36.5958C36.6025 36.3857 36.6208 36.2278 36.6208 36.0685C36.6208 32.8783 36.6208 29.6869 36.6182 26.4967C36.6182 25.5752 36.4485 24.681 36.1104 23.8287C35.5948 22.5286 34.7059 21.5744 33.3902 21.0536C32.3433 20.6398 31.2664 20.4949 30.1413 20.6568C28.9535 20.8278 27.9445 21.3316 27.0803 22.1448C26.8467 22.3641 26.6391 22.6095 26.3794 22.8863C26.3076 22.2688 26.4107 21.6841 26.2998 21.0654H24.7556C24.2348 21.0654 23.714 21.0562 23.1931 21.068C22.6971 21.0797 22.1946 21.0144 21.7299 21.1097C21.6921 21.1894 21.6699 21.2168 21.6659 21.2468C21.6555 21.3108 21.649 21.376 21.649 21.4413C21.649 26.3897 21.649 31.3381 21.6503 36.2878C21.6503 36.3518 21.6673 36.4157 21.679 36.4797C21.6816 36.4953 21.6894 36.511 21.6986 36.5241C21.7077 36.5371 21.7221 36.5462 21.739 36.5619C22.0941 36.6468 25.7411 36.6637 26.3259 36.5684H26.3246ZM18.5711 36.605C18.682 36.1246 18.6794 21.5496 18.5685 21.0941C18.0724 21.0379 17.5555 21.0745 17.04 21.068C16.5035 21.0614 15.9657 21.0601 15.4292 21.068C14.9149 21.0758 14.3967 21.0288 13.8446 21.1084C13.8354 21.3395 13.8211 21.53 13.8211 21.7219C13.8211 26.4745 13.8211 31.2271 13.8211 35.9797C13.8211 36.0776 13.8119 36.1768 13.825 36.2721C13.838 36.3792 13.872 36.4836 13.8994 36.6037H18.5724L18.5711 36.605ZM13.3394 16.2449C13.2781 17.665 14.5612 19.1479 16.2163 19.1361C17.5843 19.127 19.0945 18.1389 19.0945 16.1953C19.0945 14.4892 17.6809 13.3236 16.1889 13.3327C14.6552 13.3419 13.299 14.6694 13.3394 16.2449Z" fill="#6457A6"/>
</g>
<defs>
<clipPath id="clip0_517_141">
<rect width="50" height="50" fill="white"/>
</clipPath>
</defs>
</svg>
