<svg width="1216" height="1084" viewBox="0 0 1216 1084" fill="none" xmlns="http://www.w3.org/2000/svg">
<path d="M640.531 1083.97C636.213 1082.89 633.622 1080.02 630.72 1077.67C598.609 1051.48 566.516 1025.24 534.422 999.041C479.96 954.555 425.481 910.068 371.037 865.565C308.318 814.299 245.634 762.998 182.916 711.749C133.325 671.224 83.6993 630.733 34.0738 590.243C23.6236 581.716 13.1216 573.223 2.65411 564.696C1.94591 564.108 1.39318 563.33 0.754073 562.621C-0.662318 558.556 0.253154 554.457 0.788619 550.461C2.87866 534.912 5.29689 519.397 7.35238 503.83C8.07785 498.226 7.87057 492.519 8.47513 486.897C9.58061 476.606 10.9797 466.349 12.2061 456.439C20.929 445.853 30.4292 436.721 40.6894 428.419C63.8698 409.635 86.2903 389.952 108.607 370.165C125.759 354.944 142.98 339.827 160.115 324.606C165.746 319.608 171.153 314.332 176.767 309.299C198.962 289.374 221.487 269.812 244.494 250.838C246.912 248.848 249.469 247.05 251.283 245.701C256.188 244.3 259.487 245.908 262.7 248.087C272.304 254.608 281.942 261.077 291.598 267.546C295.484 270.158 299.423 272.683 303.551 275.398C308.042 272.147 309.596 267.113 312.74 263.36C315.918 259.538 318.768 255.438 322.016 251.097C318.907 248.9 316.143 246.877 313.293 244.957C224.423 185.267 135.588 125.595 46.7522 65.9056C36.3366 58.9006 25.9036 51.9129 15.5053 44.8733C13.4325 43.4723 11.3597 42.0194 9.47697 40.3763C7.45602 38.612 7.11056 35.5679 8.38876 33.5096C9.58061 31.607 12.6034 30.6557 15.1253 31.7454C17.1117 32.6102 18.9944 33.7864 20.8081 34.9971C30.7228 41.6216 40.6203 48.298 50.5178 54.9397C141.167 115.84 231.833 176.74 322.499 237.64C325.09 239.387 327.733 241.048 330.479 242.829C332.19 241.567 333.727 240.512 335.178 239.336C349.342 227.799 364.473 217.75 380.727 209.413C398.155 200.471 416.741 194.901 435.724 190.525C437.538 190.11 439.593 190.076 441.131 189.176C450.942 183.382 461.755 179.992 472.378 176.291C498.425 167.227 524.197 157.368 550.728 149.758C566.982 145.105 583.34 140.85 600.561 136.163C605.259 129.902 608.714 121.617 614.88 115.65C618.784 113.453 622.498 114.024 626.039 115.477C629.511 116.895 632.844 118.659 636.161 120.458C640.565 122.845 644.884 125.405 649.841 128.224C653.727 127.913 658.08 127.601 662.416 127.186C665.525 126.892 668.617 126.304 671.743 126.062C682.349 125.215 692.972 124.471 704.752 123.606C705.357 123.243 706.998 122.343 708.552 121.323C727.483 108.939 747.296 98.1113 767.488 87.9757C771.668 85.8828 776.176 84.4299 780.598 82.8733C784.899 81.3685 788.837 82.51 791.636 85.952C794.399 89.3248 796.938 92.9743 799.028 96.7968C804.314 106.483 808.114 116.826 811.016 127.446C815.317 143.185 819.238 159.046 823.332 174.855C823.884 176.965 824.472 179.075 825.163 181.583C827.684 183.019 830.362 184.541 833.799 186.478C833.799 183.866 834.093 182.033 833.747 180.321C830.949 166.432 826.838 152.941 821.76 139.726C820.862 137.391 819.929 135.022 819.463 132.583C818.772 128.916 821.708 125.561 825.439 125.855C827.546 126.028 829.809 126.598 831.64 127.636C836.545 130.403 841.296 133.482 846.046 136.509C848.654 138.17 851.159 139.986 853.784 141.784C855.598 138.671 854.734 135.783 854.32 133.119C851.988 118.296 853.473 103.629 855.943 89.0307C860.054 64.6603 868.38 41.7081 879.953 19.9147C882.457 15.1929 885.014 10.5056 887.674 5.88746C888.607 4.2789 889.85 2.82601 891.094 1.44231C891.698 0.785048 892.648 0.456419 893.426 0.00671521C897.312 -0.131655 899.299 1.87472 899.938 5.43775C900.162 6.66579 900.128 7.94571 900.231 9.19105C900.922 17.7354 903.375 25.7955 906.916 33.5961C913.825 48.765 923.55 61.5123 936.971 71.5961C947.525 79.5351 958.148 87.2492 969.98 93.2337C982.33 99.495 993.903 107.002 1004.11 116.48C1004.75 117.085 1005.7 117.345 1007.03 118.037C1007.24 115.563 1007.65 113.453 1007.57 111.378C1006.96 97.5232 1005.36 83.79 1001.35 70.4891C998.359 60.5783 995.89 50.4773 991.364 41.0854C989.809 37.8683 989.222 34.4955 991.744 31.019C994.957 28.7186 998.066 29.6007 1000.83 32.2124C1010.19 41.0508 1019.66 49.7854 1028.76 58.866C1055.14 85.1737 1074.02 116.549 1089.77 150.017C1090.56 151.695 1091.41 153.338 1092.34 155.189C1094.67 151.073 1095.26 148.824 1095.88 142.165C1096.33 137.478 1096.92 132.79 1097.21 128.086C1097.51 123.416 1097.49 118.728 1097.61 113.661C1099.42 112.796 1100.96 111.551 1102.62 111.378C1105.04 111.101 1106.71 112.934 1107.66 114.975C1108.84 117.535 1109.74 120.233 1110.62 122.914C1119.15 149.239 1125.82 176.066 1130.69 203.273C1133.68 219.946 1135.21 236.879 1135.2 253.916C1135.18 271.818 1134.94 289.702 1132.16 307.085C1133.24 308.797 1134.45 308.573 1135.66 308.157C1141 306.307 1146.29 304.318 1151.66 302.64C1156.74 301.049 1161.88 299.648 1167.07 298.472C1169.47 297.918 1172.06 297.814 1174.51 298.005C1178.1 298.281 1180.18 302.726 1178.29 305.926C1177.52 307.241 1176.43 308.452 1175.27 309.455C1172.18 312.118 1169.03 314.73 1165.79 317.203C1147.15 331.438 1131.4 348.371 1118.1 367.657C1115.61 371.272 1113.12 374.904 1110.72 378.588C1109.89 379.851 1109.36 381.286 1108.53 382.964C1111.84 385.091 1114.95 383.846 1117.89 383.742C1125.71 383.5 1133.54 383.137 1141.36 382.826C1144.7 382.687 1147.55 383.656 1149.72 386.7C1151.85 392.546 1149.97 398.288 1147.89 403.875C1142.66 418.006 1137.17 432.051 1131.81 446.13C1130.71 449.018 1129.7 451.942 1128.55 455.124C1131.6 456.906 1134.26 458.48 1136.96 460.036C1140.12 461.852 1142.3 464.412 1142.9 468.079C1144.42 477.367 1146.01 486.655 1147.29 495.978C1147.58 498.053 1146.99 500.388 1146.3 502.447C1144.68 507.324 1141.4 510.334 1136.01 510.68C1126.85 511.268 1119.41 508.155 1113.88 500.734C1112.43 498.797 1111.08 496.791 1109.34 494.335C1105.69 497.846 1104.3 502.049 1102.21 505.768C1100.06 509.59 1098.28 513.637 1096.14 517.477C1094 521.317 1091.63 525.018 1089.32 528.772C1087 532.508 1084.71 536.261 1082.32 539.945C1079.94 543.647 1077.56 547.331 1075.02 550.928C1072.5 554.509 1069.78 557.968 1067.09 561.548C1067.3 563.52 1067.19 565.457 1067.71 567.204C1072.98 584.673 1076.49 602.558 1080.11 620.373C1083.74 638.205 1086.57 656.211 1089.35 674.216C1090.63 682.588 1091 691.097 1091.67 699.555C1092.2 706.128 1092.71 712.718 1092.98 719.308C1093.34 727.472 1093.48 735.635 1093.65 743.817C1093.74 747.57 1093.65 751.323 1093.65 754.903C1096.14 758.311 1099.65 759.919 1102.72 761.978C1137.34 785.293 1172.02 808.539 1206.66 831.837C1209.75 833.913 1212.72 836.196 1215.65 838.306C1215.81 840.001 1216.07 841.247 1215.98 842.457C1215.91 843.339 1215.36 844.187 1215.07 844.931C1212.44 847.196 1209.75 847.024 1207.09 845.536C1205.17 844.481 1203.39 843.149 1201.58 841.921C1044.48 736.396 887.38 630.854 730.299 525.312C653.969 474.029 577.674 422.711 501.345 371.41C498.235 369.317 495.057 367.294 492.38 365.529C475.176 365.754 458.594 365.962 442.219 366.187C441.303 368.003 442.184 368.798 443.238 369.507C451.287 374.973 459.336 380.439 467.403 385.87C554.926 444.694 642.448 503.519 729.953 562.361C799.495 609.113 869.019 655.899 938.543 702.686C939.838 703.568 941.117 704.467 942.447 705.315C946.713 708.013 949.114 711.663 949.252 716.921C949.442 723.493 950.081 730.066 950.548 736.639C951.584 751.375 952.638 766.094 953.64 780.831C953.847 783.961 954.451 787.196 953.951 790.222C953.018 795.809 950.893 800.739 946.385 804.89C916.14 832.771 886.136 860.93 856.03 888.967C824.092 918.717 792.102 948.432 760.164 978.164C725.687 1010.27 691.193 1042.35 656.819 1074.56C652.138 1078.93 647.267 1082.6 640.427 1084L640.531 1083.97ZM254.91 257.6C254.15 257.981 253.183 258.223 252.492 258.811C231.712 276.523 210.76 294.061 190.24 312.066C169.477 330.279 149.199 349.081 128.54 367.432C100.851 392.045 73.3009 416.83 43.9713 439.523C38.5302 443.726 33.6765 448.742 28.6501 453.464C27.5964 454.45 26.94 455.868 25.9209 457.321C27.4064 458.687 28.4773 459.794 29.6864 460.763C235.115 626.634 440.543 792.488 645.989 958.308C646.438 958.671 647.164 958.671 647.751 958.844C648.338 958.671 649.081 958.688 649.513 958.325C743.634 877.552 837.737 796.76 931.806 715.952C932.497 715.364 932.895 714.447 933.482 713.6C932.826 712.856 932.342 711.991 931.599 711.507C760.009 596.054 588.401 480.636 416.586 365.08C407.846 364.474 399.071 364.059 390.348 363.194C379.12 362.07 367.91 360.704 356.735 359.182C350.844 358.386 345.023 357.054 339.185 355.999C338.581 355.895 337.941 355.913 337.32 355.964C337.043 355.982 336.732 356.172 336.508 356.38C336.335 356.535 336.283 356.812 335.92 357.538C337.838 358.922 339.807 360.41 341.845 361.793C430.94 422.763 520.051 483.732 609.163 544.684C688.947 599.254 768.749 653.807 848.533 708.394C850.606 709.812 852.644 711.282 854.579 712.856C856.461 714.378 856.928 716.471 856.289 719.429C853.076 722.888 850.295 727.385 846.097 730.844C823.591 749.438 801.239 768.222 778.836 786.953C745.827 814.541 712.819 842.111 679.81 869.699C671.381 876.739 662.865 883.709 654.557 890.887C648.114 896.456 643.139 898.843 634.917 891.129C634.693 890.921 634.433 890.714 634.192 890.524C605.069 867.122 575.964 843.72 546.824 820.318C479.511 766.25 412.181 712.216 344.868 658.148C281.476 607.228 218.084 556.29 154.692 505.353C134.62 489.232 114.549 473.112 94.495 456.992C92.3185 455.245 89.7103 453.844 89.0021 450.575C89.8312 446.528 90.7122 442.308 91.6794 437.568C94.184 433.607 98.7269 431.151 102.527 427.952C137.85 398.237 173.226 368.608 208.584 338.928C221.331 328.221 233.992 317.428 246.792 306.791C252.319 302.208 254.374 302.225 260.23 305.961C261.56 306.808 262.821 307.742 264.116 308.624C273.185 314.834 282.219 321.061 291.339 327.183C292.375 327.875 293.55 329.553 295.225 328.117C291.736 314.419 291.563 311.305 294.258 300.27C295.001 297.226 296.262 294.32 297.194 291.328C297.73 289.616 298.11 287.852 298.49 286.364C288.644 278.408 261.111 260.264 254.893 257.6H254.91ZM758.264 278.719C755.276 280.345 752.426 281.66 749.817 283.337C724.979 299.388 697.532 307.102 668.289 309.23C661.362 309.731 654.539 309.645 647.665 308.607C634.174 306.549 621.392 302.761 610.303 294.338C599.939 286.468 590.612 277.508 584.601 265.92C575.429 248.191 572.751 228.958 574.012 209.205C574.98 193.933 580.041 179.75 586.535 166.034C588.418 162.056 590.301 158.095 592.114 154.082C592.598 153.027 593.341 151.799 591.665 150.709C590.923 150.744 589.973 150.623 589.126 150.865C577.329 154.048 565.41 156.832 553.803 160.603C529.361 168.525 505.076 176.879 480.772 185.233C469.51 189.107 458.196 192.843 447.539 198.274C445.363 199.381 442.772 199.744 440.336 200.246C420.869 204.172 402.301 210.658 384.665 219.86C372.384 226.277 360.88 233.887 349.756 242.068C334.642 253.173 322.206 266.767 313.293 283.424C309.13 291.19 305.537 299.181 304.207 308.036C302.532 319.21 307.178 329.795 317.041 335.122C326.99 340.502 337.458 344.912 348.72 346.659C362.659 348.804 376.633 350.862 390.676 352.073C406.585 353.456 422.597 353.975 438.557 354.65C447.021 355.013 455.485 354.875 463.966 354.979C475.573 355.117 487.146 354.702 498.65 352.868C501.742 352.384 504.885 352.055 508.012 352.107C509.739 352.142 511.449 353.111 512.952 353.578C513.528 356.795 512.825 360.162 510.845 363.679C512.209 364.786 513.574 366.048 515.094 367.069C616.711 435.251 718.346 503.415 819.998 571.545C820.412 571.822 821.19 571.58 822.209 571.58C822.364 569.435 822.572 567.291 822.675 565.129C823.107 555.391 824.385 545.722 826.113 536.14C830.034 514.364 836.874 493.556 846.927 473.821C847.548 472.593 848.827 471.244 847.255 469.29C845.009 469.29 842.539 469.186 840.069 469.29C829.498 469.774 819.238 467.664 809.928 463.132C787.024 451.976 768.421 436.185 758.869 411.555C757.849 408.926 756.537 406.4 755.604 403.737C751.579 392.39 748.937 380.802 750.094 368.66C750.957 359.562 752.892 350.689 756.329 342.162C760.579 331.629 765.899 321.7 772.065 312.188C774.604 308.279 777.61 304.594 778.923 300.184C776.781 288.751 769.302 282.784 758.333 278.754L758.264 278.719ZM640.203 969.049C635.384 964.379 29.9283 474.911 23.9518 470.829C23.2609 470.362 22.3454 470.224 21.1363 469.791C20.0826 473.977 19.3744 477.921 19.1326 482.003C18.5108 492.346 17.9062 502.689 16.9907 513.015C16.1962 521.767 14.8834 530.467 13.9507 539.201C13.3116 545.082 11.567 550.842 11.6188 557.086C13.3116 558.556 14.918 560.026 16.6107 561.41C28.0282 570.75 39.463 580.055 50.8805 589.395C116.967 643.429 183.037 697.48 249.123 751.496C296.503 790.222 343.918 828.914 391.315 867.623C427.053 896.802 462.791 925.964 498.512 955.16C526.943 978.389 555.34 1001.67 583.772 1024.9C599.801 1038.01 615.848 1051.12 631.912 1064.2C633.259 1065.3 634.416 1067.14 637.145 1065.94C639.494 1033.94 640.064 1001.67 640.22 969.066L640.203 969.049ZM849.794 243.625C851.746 244.109 852.92 244.473 854.129 244.68C874.788 248.433 895.274 252.879 915.034 260.247C951.722 273.928 985.75 292.435 1016.84 316.304C1020.28 318.95 1023.27 322.219 1026.36 325.298C1026.95 325.886 1027 327.01 1027.41 328.238C1026.5 329.657 1025.51 331.179 1024.82 332.234C1021.16 333.791 1018.85 332.303 1016.51 330.504C1010.8 326.094 1005.03 321.77 999.258 317.428C998.239 316.667 997.15 316.148 996.062 317.895C996.943 319.02 997.807 320.317 998.86 321.458C1015.94 339.913 1031.9 359.285 1046.67 379.643C1049.07 382.947 1051.65 386.112 1054.2 389.294C1055.34 390.695 1056.64 391.975 1058.07 393.549C1070.06 388.672 1082.67 388.032 1094.43 385.783C1099.7 377.273 1104.36 369.075 1109.68 361.344C1115.21 353.335 1121.1 345.552 1127.35 338.115C1133.31 331.023 1139.93 324.502 1147.24 316.685C1137.48 318.362 1130.29 323.309 1122.83 324.918C1119.03 323.897 1116.87 322.41 1117.08 318.207C1118.91 315.301 1121.15 311.876 1121.67 307.725C1122.35 302.432 1123.4 297.157 1123.69 291.847C1125.01 267.65 1124.75 243.469 1121.84 219.358C1119.29 198.101 1114.05 177.398 1108.82 156.711C1108.39 154.999 1107.96 153.148 1105.75 152.266C1104.17 163.215 1102.69 174.094 1101 184.939C1100.62 187.36 1099.67 189.747 1098.58 191.961C1097.77 193.639 1096.28 194.971 1094.21 195.178C1091.67 195.438 1090.06 194.158 1088.94 191.823C1088.85 191.044 1088.47 190.041 1088.7 189.194C1090.53 182.085 1088.54 175.478 1085.97 169.043C1082.93 161.485 1079.96 153.823 1076.16 146.645C1069.85 134.71 1063.13 122.983 1056.17 111.429C1044.43 91.9365 1029.66 74.8478 1013.39 59.039C1012.47 58.1569 1011.68 56.4272 1009.48 57.5169C1009.79 58.7795 1010.02 59.9903 1010.4 61.1318C1017.93 84.1532 1019.16 107.953 1019.1 131.908C1019.1 134.157 1018.86 136.319 1017.03 137.875C1014.11 139.64 1011.4 138.688 1009.17 136.838C1005.8 134.053 1002.54 131.078 999.551 127.878C993.73 121.617 987.132 116.342 979.912 111.862C975.11 108.887 970.343 105.843 965.299 103.335C949.719 95.586 935.935 85.2774 922.738 74.0867C915.017 67.5314 908.35 60.0422 903.669 50.9789C900.076 44.0085 896.725 36.917 893.288 29.8774C892.648 28.5629 892.769 26.7468 890.938 26.2106C890.61 26.2625 890.161 26.2106 890.04 26.4009C889.125 27.6462 888.123 28.8569 887.415 30.2233C878.623 47.018 872.508 64.8332 868.432 83.2884C865.72 95.5514 863.82 108.039 864.597 120.683C865.098 128.83 866.221 136.924 867.015 145.036C867.413 149.083 867.913 153.148 867.913 157.195C867.913 160.084 864.58 162.263 861.764 161.347C860.037 160.776 858.413 159.721 856.928 158.631C851.124 154.359 845.407 149.948 839.603 145.659C838.67 144.967 837.461 144.241 836.252 146.16C837.357 149.758 838.618 153.598 839.706 157.472C844.318 173.817 847.445 190.422 849.535 207.286C850.865 217.992 851.159 228.543 849.673 239.197C849.5 240.408 849.759 241.671 849.863 243.66L849.794 243.625ZM971.154 438.208C972.139 440.284 973.037 442.273 974.005 444.193C985.664 467.37 990.673 492.069 990.69 517.892C990.69 529.861 989.291 541.727 987.788 553.557C986.994 559.767 985.681 565.924 984.437 572.064C984.144 573.552 983.349 574.987 982.555 576.302C981.415 578.17 978.858 578.914 976.734 578.239C975.041 577.703 973.555 575.921 973.504 574.019C973.452 572.462 973.504 570.871 973.745 569.349C974.661 563.779 975.905 558.262 976.596 552.675C977.701 543.958 978.703 535.206 979.307 526.454C980.309 511.631 978.668 497.05 975.715 482.47C972.346 465.848 965.472 450.904 956.576 436.721C954.382 433.227 951.567 430.166 947.784 428.401C942.101 425.738 936.228 423.455 929.785 423.541C917.971 423.697 906.847 426.308 896.742 432.725C884.081 440.768 873.683 451.094 865.599 463.668C859.657 472.922 854.648 482.677 850.398 492.865C840.795 515.972 835.267 540.032 832.745 564.852C832.21 570.11 831.813 575.489 833.92 581.318C915.345 635.991 997.099 690.89 1078.89 745.754C1079.59 746.238 1080.63 746.238 1081.84 746.532C1083.58 741.879 1082.96 737.175 1082.74 732.608C1082.15 720.691 1081.36 708.774 1080.49 696.857C1079.99 689.973 1079.51 683.055 1078.47 676.24C1074.79 652.042 1071.01 627.845 1065.72 603.924C1063.03 591.678 1061.13 579.225 1057.17 567.256C1056.4 564.904 1055.78 562.482 1054.98 559.732C1060.75 551.447 1066.67 543.37 1072.13 534.998C1077.78 526.316 1083.43 517.598 1088.25 508.449C1092.88 499.662 1098.16 491.118 1101.36 481.864C1099.11 478.716 1096.07 477.696 1093.22 476.502C1079.91 471.002 1066.74 465.225 1053.03 460.642C1027.76 452.201 1002.37 444.279 976.613 437.499C975.162 437.119 973.607 436.444 971.154 438.226V438.208ZM1138.6 394.795C1136.22 394.483 1134.38 393.999 1132.59 394.068C1123.83 394.483 1115.02 394.639 1106.32 395.642C1089.87 397.527 1073.12 397.839 1057.57 404.74C1055.21 405.795 1052.67 405.709 1051.11 404.446C1045.95 397.51 1041.23 391.266 1036.6 384.936C1012.64 352.142 985.698 321.995 956.438 293.888C954.21 291.743 951.705 289.65 948.976 288.284C925.139 276.332 900.888 265.418 874.684 259.572C864.614 257.324 854.699 254.262 844.267 254.003C843.075 253.968 841.883 253.363 841.175 253.155C838.204 250.665 838.584 247.984 838.947 245.043C840.795 230.324 840.501 215.657 837.444 201.145C830.707 196.06 823.297 192.636 816.181 188.571C815.472 186.028 814.695 183.641 814.16 181.22C809.582 160.672 803.934 140.435 797.008 120.579C794.745 114.076 791.826 107.797 788.924 101.536C787.507 98.4745 785.987 95.2401 782.55 93.6834C778.128 93.2856 774.691 95.7417 771.15 97.6097C752.27 107.538 733.788 118.14 715.91 129.815C713.285 131.528 710.625 133.154 708.103 134.728C694.561 135.039 681.14 133.845 667.183 137.962C669.1 139.467 670.24 140.487 671.519 141.3C675.751 144.016 680.017 146.627 684.266 149.308C707.948 164.183 730.454 180.632 750.888 199.848C758.92 207.407 765.847 215.916 772.549 224.634C775.796 228.854 777.299 233.334 775.969 238.713C775.485 240.702 775.883 242.916 775.883 244.888C779.838 246.911 783.69 248.416 786.972 250.716C790.53 253.207 793.76 256.269 796.766 259.451C799.512 262.357 801.758 265.747 804.107 268.791C805.178 268.411 805.851 268.341 806.283 267.995C810.878 264.467 815.576 264.796 820.326 267.58C823.573 269.483 826.838 271.351 829.999 273.392C844.474 282.818 858.292 293.144 871.437 304.352C878.605 310.458 885.549 316.823 892.648 322.998C909.006 337.215 924.534 352.315 939.199 368.262C946.195 375.872 952.862 383.794 960.134 392.114C971.897 396.438 984.213 401.073 996.598 405.466C1007.51 409.341 1018.62 412.696 1029.49 416.726C1056.48 426.793 1083.39 437.119 1110.34 447.323C1112.64 448.188 1114.99 448.88 1117.22 449.607C1122.24 441.495 1125.25 434.126 1136.87 401.454C1137.58 399.465 1137.93 397.337 1138.56 394.795H1138.6ZM938.647 726.174C938.059 726.33 937.317 726.313 936.885 726.676C841.538 808.384 746.225 890.126 650.843 971.92C650.618 973.165 650.221 974.376 650.186 975.622C649.582 1003.9 650.67 1032.22 648.874 1060.48C648.822 1061.39 649.098 1062.33 649.288 1063.24C649.34 1063.5 649.703 1063.69 650.186 1064.21C653.278 1063.47 655.057 1060.72 657.234 1058.7C682.573 1035.21 707.861 1011.68 733.114 988.144C756.312 966.524 779.458 944.834 802.656 923.214C846.996 881.893 891.37 840.607 935.693 799.286C938.198 796.951 940.478 794.408 942.913 791.9C942.706 770.176 940.685 748.902 939.648 727.575C939.631 727.091 938.957 726.641 938.595 726.174H938.647ZM790.755 300.011C790.046 301.619 789.459 303.401 788.526 304.992C785.486 310.129 782.394 315.232 779.216 320.282C773.672 329.086 769.198 338.409 765.674 348.198C762.116 358.075 759.853 368.366 761.235 378.726C764.24 401.454 772.618 421.777 790.478 437.153C801.55 446.684 813.607 454.311 828.272 457.182C837.133 458.912 845.735 458.41 854.216 455.591C859.225 453.931 862.144 450.212 864.113 444.764C860.676 444.521 857.895 444.383 855.131 444.124C847.635 443.449 839.948 443.587 832.711 441.841C815.041 437.586 800.6 427.831 789.891 413.042C785.296 406.694 781.306 399.828 779.423 392.096C775.986 378.017 776.349 363.973 781.479 350.395C787.887 333.445 798.337 318.916 810.083 305.286C813.037 301.862 816.923 300.703 821.138 302.432C824.299 303.73 827.322 305.459 830.137 307.396C836.597 311.842 842.885 316.546 849.241 321.13C858.69 327.91 867.862 335.001 875.859 343.528C878.433 346.279 881.386 348.648 884.046 351.312C897.554 364.889 911.096 378.398 921.736 394.518C924.949 399.378 927.505 404.169 927.091 410.154C927.056 410.621 927.747 411.14 928.041 411.555C932.687 412.471 937.386 413.008 941.842 414.357C946.609 415.81 951.118 418.058 955.781 419.857C957.82 420.653 959.962 421.189 962.052 421.829C965.955 423.005 969.859 424.146 973.763 425.305C989.999 430.079 1006.17 435.043 1022.47 439.557C1045.14 445.853 1067.54 452.876 1089.03 462.527C1091.03 463.426 1092.98 464.499 1095.09 465.104C1104.43 467.785 1110.84 473.821 1115.25 482.297C1116.4 484.528 1117.56 486.776 1118.98 488.835C1120.39 490.893 1121.9 493.02 1123.81 494.56C1127.3 497.396 1131.29 498.814 1136.28 496.895C1135.25 488.835 1135.42 480.965 1132.26 473.354C1130.27 471.988 1128.25 470.518 1126.18 469.134C1115.95 462.302 1104.8 457.165 1093.45 452.703C1069.84 443.415 1046.1 434.369 1022.11 426.101C998.118 417.833 974.54 408.493 950.807 399.499C950.254 399.292 949.805 398.755 949.788 398.738C947.076 394.968 944.969 391.422 942.274 388.412C934.328 379.522 926.4 370.58 918.005 362.122C897.865 341.833 876.481 322.877 854.389 304.75C843.23 295.6 831.813 286.745 819.463 279.186C817.632 278.062 815.645 277.214 814.021 276.384C810.031 277.56 807.889 280.414 805.178 282.49C802.638 284.427 800.082 284.773 797.422 282.248C796.8 280.674 796.144 278.909 795.401 277.18C790.185 265.28 782.066 256.787 768.749 254.349C766.97 254.02 765.277 253.224 763.774 252.74C760.319 245.701 766.572 239.543 764.171 232.227C758.316 224.27 751.838 215.726 743.893 208.583C734.341 199.986 724.582 191.546 714.39 183.728C690.709 165.55 665.179 150.156 639.356 135.264C633.984 132.168 628.353 129.452 622.446 127.653C621.479 128.535 620.667 129.054 620.131 129.798C609.163 145.209 599.853 161.502 592.892 179.144C586.449 195.489 583.236 212.163 585.585 229.805C587.831 246.686 592.736 262.236 605 274.758C614.155 284.116 624.363 291.743 637.214 295.064C642.362 296.396 647.682 297.036 652.898 298.022C656.629 298.731 660.326 298.887 664.109 298.35C671.553 297.313 679.05 296.655 686.477 295.6C691.106 294.943 695.736 294.026 700.261 292.85C717.413 288.422 733.322 281.175 747.987 271.195C750.284 269.621 752.46 267.667 756.122 267.494C773.568 271.334 785.884 281.4 790.737 300.063L790.755 300.011ZM648.597 783.096C647.44 783.961 646.145 784.826 644.97 785.846C631.186 797.729 617.402 809.646 603.636 821.546C598.885 825.645 594.153 829.762 589.437 833.896C588.263 834.916 587.088 836.006 587.762 838.756C605 852.628 622.809 867.001 640.669 881.305C641.861 882.273 643.312 882.913 645.022 883.934C665.957 866.81 686.512 849.376 707.188 832.08C708.103 831.319 708.777 830.246 709.537 829.347C703.802 823.466 655.161 786.573 648.597 783.096ZM638.803 776.334C637.957 774.777 637.767 774.12 637.335 773.722C636.195 772.649 635.003 771.629 633.743 770.695C615.709 757.1 597.676 743.522 579.643 729.945C579.401 729.772 579.073 729.668 578.78 729.616C578.469 729.564 578.158 729.616 577.07 729.616C574.202 732.09 570.955 734.995 567.587 737.763C562.042 742.346 556.204 746.618 550.884 751.461C540.917 760.525 531.21 769.899 521.416 779.153C520.345 780.173 518.652 780.813 519.032 782.802C524.179 787.922 559.935 817.222 573.58 827.444C574.548 828.171 575.74 828.62 577.242 829.416C597.694 811.774 618.093 794.183 638.803 776.316V776.334ZM658.858 774.777C659.911 775.97 660.429 776.783 661.138 777.337C679.585 791.381 698.05 805.426 716.55 819.401C717.5 820.11 718.795 820.353 720.298 820.975C739.972 804.942 759.369 788.649 778.974 772.027C777.903 770.747 777.264 769.657 776.332 768.948C758.834 755.422 720.747 729.167 714.632 726.365C705.633 733.058 664.16 768.983 658.858 774.794V774.777ZM704.286 718.477C703.077 717.405 702.023 716.264 700.797 715.399C681.071 701.527 661.535 687.379 641.809 673.801C640.479 674.545 639.564 674.874 638.89 675.479C623.033 689.281 607.194 703.101 591.389 716.973C590.059 718.131 589.04 719.671 587.865 721.055C588.833 722.092 589.385 722.888 590.111 723.442C609.111 737.832 628.129 752.205 647.164 766.561C647.406 766.734 647.734 766.803 648.045 766.855C648.338 766.907 648.632 766.855 648.908 766.855C653.624 763.5 697.601 726.105 702.645 721.089C703.249 720.484 703.595 719.602 704.303 718.46L704.286 718.477ZM568.329 721.66C557.534 712.199 519.239 683.383 512.935 679.872C506.976 683.85 463.534 721.798 454.845 730.602C455.243 731.363 455.485 732.349 456.124 732.937C461.997 738.489 504.696 772.027 509.446 774.898C513.142 773.255 516.078 770.401 518.929 767.53C533.317 753.07 548.638 739.614 563.89 726.105C565.272 724.877 566.499 723.493 568.329 721.643V721.66ZM724.582 717.198C725.842 718.72 726.309 719.602 727.017 720.121C747.434 734.615 767.868 749.075 788.025 763.327C789.148 762.946 789.856 762.894 790.306 762.531C806.922 748.694 823.539 734.857 840.104 720.951C840.933 720.242 841.347 719.031 842.228 717.578C830.966 709.881 820.153 702.461 809.289 695.076C798.217 687.552 787.404 679.613 775.969 672.729C758.748 687.638 741.958 702.167 724.599 717.198H724.582ZM447.366 629.09C428.85 642.927 413.304 658.944 396.117 673.057C393.975 674.822 392.248 677.07 390.141 679.284C391.246 680.478 391.972 681.498 392.904 682.242C409.262 695.421 425.637 708.584 442.063 721.695C442.979 722.421 444.257 722.663 445.121 723.044C446.054 722.525 446.675 722.317 447.124 721.919C464.553 706.612 481.999 691.305 499.393 675.929C500.705 674.77 502.588 673.853 502.225 670.774C484.469 657.283 466.28 643.463 447.384 629.108L447.366 629.09ZM714.77 710.608C731.853 696.304 748.764 681.463 765.83 666.658C764.949 665.482 764.534 664.53 763.809 664.046C743.167 649.846 722.474 635.697 702.006 621.67C695.235 625.752 676.01 642.028 654.971 661.382C653.641 662.593 652.518 664.029 651.05 665.603C652.311 666.848 653.088 667.782 654.038 668.508C669.066 679.941 707.948 706.941 714.753 710.608H714.77ZM522.521 671.639C537.428 683.989 552.732 694.851 567.587 706.284C570.748 708.722 573.632 711.715 577.536 713.064C578.555 712.562 579.505 712.32 580.179 711.732C596.502 697.532 612.79 683.314 629.044 669.045C629.718 668.457 630.081 667.54 631.221 665.828C630.219 665.239 629.113 664.669 628.094 663.96C610.959 651.835 593.842 639.676 576.69 627.585C575.74 626.911 574.496 626.651 573.58 626.288C563.614 633.916 527.945 665.464 522.504 671.656L522.521 671.639ZM457.125 621.307C457.92 622.258 458.594 623.33 459.509 624.109C469.165 632.238 506.682 660.137 512.417 663.475C513.142 663.112 514.075 662.853 514.748 662.265C530.329 648.6 545.874 634.902 561.403 621.186C562.042 620.615 562.37 619.698 563.061 618.609C561.869 617.519 560.833 616.343 559.589 615.478C541.677 602.817 523.903 589.966 506.112 577.738C504.972 578.17 504.264 578.239 503.832 578.637C488.839 591.99 473.863 605.377 458.905 618.799C458.231 619.404 457.834 620.321 457.143 621.324L457.125 621.307ZM514.558 569.66C521.969 574.97 528.291 579.554 534.664 584.068C541.055 588.617 547.395 593.218 553.889 597.594C560.315 601.918 566.136 607.193 573.08 610.514C574.22 609.736 575.066 609.286 575.757 608.663C590.145 596.072 604.534 583.463 618.888 570.836C619.993 569.85 621.513 568.968 620.822 566.201C601.787 553.021 582.182 539.565 562.422 526.35C561.714 525.883 560.678 525.883 559.883 525.693C545.564 540.723 529.621 553.817 514.558 569.643V569.66ZM632.153 574.918C626.937 578.585 591.044 609.753 584.618 616.256C584.255 616.62 584.255 617.363 583.962 618.436C587.865 622.206 592.771 625.026 597.279 628.346C602.081 631.892 607.004 635.248 611.875 638.69C616.487 641.941 621.064 645.262 625.711 648.462C630.564 651.818 635.124 655.657 640.393 658.373C641.844 657.439 642.984 656.885 643.899 656.09C659.03 642.875 674.144 629.626 689.241 616.36C689.638 616.014 689.69 615.27 690.087 614.198C689.12 613.316 688.101 612.192 686.909 611.31C666.492 596.383 638.942 578.101 632.171 574.918H632.153ZM283.359 593.045C283.894 592.733 284.533 592.543 284.982 592.128C300.908 576.976 316.817 561.825 332.69 546.621C333.485 545.86 333.83 544.632 334.521 543.387C326.714 537.403 319.338 531.556 311.773 526.004C304.259 520.487 297.298 514.156 289.231 509.659C280.439 516.491 243.838 551.222 238.863 557.484C239.813 558.556 240.694 559.836 241.834 560.804C257.121 574.071 277.313 589.707 283.359 593.045ZM436.467 621.255C429.074 614.492 420.507 608.75 412.388 602.471C406.481 597.905 400.677 593.149 394.217 589.118C392.835 590.104 391.73 590.692 390.866 591.523C374.439 607.47 358.03 623.452 341.344 639.71C347.2 646.646 354.42 651.143 360.897 656.436C367.617 661.936 374.059 667.851 381.694 672.417C400.107 655.64 418.175 639.174 436.242 622.691C436.415 622.535 436.363 622.103 436.484 621.255H436.467ZM550.106 518.446C548.69 517.2 547.636 516.076 546.41 515.229C532.488 505.664 518.531 496.134 504.557 486.638C503.331 485.808 501.863 485.323 500.256 484.545C486.179 498.382 472.343 511.977 458.559 525.606C457.937 526.212 457.73 527.215 457.281 528.114C457.903 528.91 458.335 529.792 459.043 530.294C473.31 540.464 487.595 550.6 501.897 560.718C502.623 561.22 503.573 561.393 504.834 561.877C519.999 549.891 533.041 535.5 547.377 522.51C548.448 521.542 549.053 520.037 550.106 518.429V518.446ZM384.354 581.871C373.748 572.393 350.724 555.27 344.557 552.156C338.218 556.567 316.212 577.011 293.757 599.41C293.394 599.773 293.446 600.551 293.273 601.312C293.74 601.952 294.154 602.834 294.845 603.388C306.055 612.451 317.266 621.497 328.545 630.474C329.668 631.373 331.17 631.806 332.725 632.567C349.998 615.651 367.167 599.22 384.354 581.871ZM447.625 537.109C446.9 537.541 445.984 537.87 445.345 538.475C431.855 551.551 418.365 564.644 404.944 577.789C404.149 578.568 403.821 579.796 403.251 580.868C404.529 582.027 405.375 582.944 406.36 583.687C418.797 593.183 431.25 602.679 443.739 612.123C444.689 612.832 445.967 613.091 447.366 613.645C451.011 610.514 454.604 607.522 458.11 604.408C469.338 594.411 480.548 584.414 491.706 574.33C493.002 573.171 493.9 571.58 494.971 570.196C485.54 562.448 454.016 540.412 447.66 537.074L447.625 537.109ZM440.595 442.653C439.645 442.048 438.574 441.391 437.538 440.682C423.858 431.324 410.195 421.967 396.48 412.644C395.513 411.987 394.252 411.762 393.319 411.416C380.001 422.503 354.765 446.805 350.395 452.806C351.19 453.602 351.915 454.605 352.865 455.28C366.373 464.896 379.88 474.479 393.44 484.009C394.39 484.666 395.651 484.856 396.566 485.185C405.98 477.609 435.655 449.036 440.578 442.653H440.595ZM189.773 517.633C195.007 523.583 221.815 545.238 228.983 549.545C229.708 549.026 230.555 548.559 231.211 547.919C246.705 533.321 262.182 518.705 277.624 504.055C278.211 503.502 278.384 502.516 278.971 501.253C266.621 491.567 254.236 482.158 241.627 472.818C240.193 473.718 239.053 474.254 238.138 475.032C222.16 489.059 206.2 503.121 189.739 517.616L189.773 517.633ZM341.189 461.299C334.383 465.952 316.73 482.089 299.336 499.506C298.991 499.852 299.094 500.648 298.991 501.219C304.242 506.494 336.041 530.744 343.538 535.189C349.013 531.643 372.764 509.659 385.373 496.393C385.943 495.788 386.151 494.819 386.479 494.11C381.521 489.008 356.614 470.95 341.189 461.282V461.299ZM179.772 510.974C182.311 508.95 184.539 507.29 186.629 505.456C195.128 498.019 203.574 490.512 212.038 483.04C217.445 478.267 222.868 473.493 228.258 468.702C229.432 467.664 230.555 466.54 229.881 463.928C224.198 459.569 218.084 454.692 211.796 450.056C205.578 445.455 199.809 440.18 193.383 436.738C192.33 437.084 191.967 437.119 191.742 437.309C176.007 450.765 160.288 464.222 144.621 477.73C143.792 478.44 143.43 479.702 142.6 481.12C155.123 491.17 167.301 500.959 179.772 510.957V510.974ZM354.385 542.142C354.454 542.747 354.299 543.612 354.627 543.906C366.736 554.301 379.811 563.399 392.334 573.05C393.595 572.41 394.563 572.168 395.202 571.545C408.657 558.435 422.096 545.29 435.482 532.11C436.104 531.505 436.381 530.571 437.054 529.36C433.358 525.468 428.677 522.891 424.462 519.778C419.937 516.422 415.29 513.222 410.661 510.023C406.325 507.048 402.266 503.64 397.758 501.322C392.248 505.335 360.776 534.998 354.368 542.124L354.385 542.142ZM445.604 520.902C452.22 516.111 474.485 495.096 487.405 481.553C488.442 480.463 489.236 479.149 490.514 477.436C484.192 472.213 477.56 468.062 471.082 463.72C464.38 459.223 458.024 454.156 450.924 450.437C449.767 451.215 448.904 451.63 448.23 452.27C434.826 465.052 421.422 477.834 408.07 490.668C407.5 491.204 407.396 492.225 406.896 493.435C419.643 502.758 432.442 511.735 445.587 520.885L445.604 520.902ZM182.588 428.799C180.808 425.703 177.561 424.233 174.936 422.088C172.276 419.909 169.477 417.902 166.748 415.81C163.76 413.526 160.841 411.174 157.783 409.012C155.072 407.092 152.722 404.532 149.769 403.46C137.712 412.177 105.532 439.592 99.9014 445.922C102.631 449.762 106.655 452.236 110.213 455.176C114.083 458.359 118.004 461.455 121.942 464.533C125.535 467.37 128.73 470.829 132.91 472.455C152.256 457.2 177.371 435.112 182.588 428.799ZM254.012 384.434C261.525 391.318 286.813 408.943 293.204 411.693C307.023 399.43 321.031 387.029 335.005 374.558C335.627 374.004 335.817 372.949 336.387 371.739C329.944 367.259 323.639 362.658 317.127 358.403C310.685 354.2 304.76 349.063 297.851 346.019C284.343 356.518 259.124 378.571 254.012 384.417V384.434ZM250.419 464.257C257.484 471.14 282.167 489.734 288.506 493.141C292.997 489.976 318.855 466.332 327.854 457.113C328.683 456.266 329.27 455.193 330.22 453.861C326.645 449.918 322.223 447.548 318.267 444.643C313.984 441.495 309.648 438.416 305.226 435.458C301.133 432.725 297.574 429.093 292.323 427.346C278.453 439.557 264.635 451.734 250.402 464.257H250.419ZM301.996 418.854C308.681 424.527 314.968 428.626 321.135 432.864C327.267 437.084 332.863 442.186 340.187 445.317C354.195 432.552 367.824 419.597 381.418 406.608C382.022 406.02 382.212 404.999 382.575 404.221C376.806 398.807 353.608 382.964 346.509 379.695C332.138 392.356 317.577 405.155 302.013 418.871L301.996 418.854ZM282.875 420.462C274.066 412.748 250.073 395.988 243.7 392.944C243.406 393.048 243.061 393.082 242.836 393.273C230.227 404.031 217.635 414.772 205.077 425.582C204.231 426.308 203.799 427.519 203.212 428.419C209.257 434.42 233.992 453.187 241.126 457.148C255.065 445.49 268.728 433.244 282.875 420.462ZM287.418 338.253C281.51 334.137 276.19 330.331 270.749 326.682C265.326 323.05 260.195 318.933 254.357 315.906C252.906 316.806 251.766 317.325 250.833 318.103C237.602 329.172 224.388 340.277 211.209 351.415C210.622 351.917 210.432 352.886 210.104 353.578C218.688 361.015 236.808 373.572 243.354 376.668C250.592 371.929 281.839 344.895 287.418 338.253ZM192.779 420.255C199.36 416 228.171 391.093 233.042 385.437C228.171 380.456 207.323 365.598 199.826 361.776C194.281 365.356 167.439 387.409 160.824 393.878C160.443 394.241 160.443 395.002 160.271 395.573C165.245 401.004 186.388 417.038 192.779 420.255ZM811.379 417.851C811.638 417.695 812 417.591 812.139 417.349C812.45 416.813 812.812 416.242 812.899 415.654C817.372 383.638 821.829 351.606 826.268 319.573C826.303 319.279 826.216 318.95 826.147 318.656C826.078 318.362 825.957 318.068 825.784 317.549C823.867 315.266 821.604 313.191 818.357 312.654C812.795 317.688 812.605 317.653 811.379 323.361C808.736 335.624 805.869 347.87 803.899 360.271C801.55 375.129 800.03 390.125 798.199 404.688C803.381 412.541 805.661 414.789 811.361 417.851H811.379ZM886.603 369.525C882.665 365.65 878.467 361.465 874.166 357.417C873.372 356.674 872.076 356.466 870.694 355.895C870.28 357.59 869.883 358.749 869.693 359.96C867.948 371.081 866.169 382.186 864.511 393.324C863.008 403.529 861.54 413.751 860.279 423.991C859.95 426.654 859.121 429.56 861.091 432.103C863.871 433.78 866.566 432.501 869.278 432.016C872.353 431.463 875.479 431.065 878.174 427.848C880.851 409.324 883.615 390.177 886.603 369.525ZM830.051 428.938C830.673 426.62 831.294 424.873 831.64 423.057C836.943 394.985 839.309 366.515 843.576 338.305C843.938 335.883 843.627 333.358 843.627 331.075C842.194 329.086 840.829 327.46 837.789 327.979C837.305 329.311 836.615 330.695 836.304 332.165C833.903 343.477 824.022 419.252 824.005 426.672C825.75 427.329 827.65 428.055 830.068 428.955L830.051 428.938Z" fill="#353535"/>
<path d="M694.319 343.892C690.001 354.979 693.231 364.855 699.328 374.195C702.921 379.712 707.861 383.414 714.408 384.573C718.415 385.282 722.474 385.679 726.516 386.112C728.969 386.371 731.439 386.458 733.218 386.579C735.826 388.603 736.483 390.574 735.705 392.927C734.945 395.244 733.08 396.386 730.852 396.922C729.643 397.216 728.364 397.182 727.121 397.233C721.092 397.51 715.254 396.282 709.502 394.691C700.555 392.2 694.216 386.354 689.465 378.571C685.493 372.05 682.936 365.01 681.934 357.435C681.779 356.224 681.572 355.013 681.347 353.405C678.324 353.162 675.716 354.166 673.073 354.736C664.61 356.535 656.232 356.276 648.079 353.249C635.349 348.51 630.305 338.27 631.152 325.869C631.342 323.136 632.62 321.13 634.831 319.642C637.681 317.722 641.723 319.314 642.12 322.634C642.345 324.485 642.051 326.37 642.068 328.256C642.12 336.281 644.987 340.553 652.415 343.286C661.069 346.469 669.67 345.656 678.152 342.525C680.207 341.764 682.055 340.432 684.128 339.81C687.963 338.651 691.625 338.703 694.354 343.926L694.319 343.892Z" fill="#353535"/>
<path d="M907.849 520.781C909.092 521.075 910.008 521.3 910.906 521.525C921.166 524.084 926.486 529.861 927.747 540.256C928.075 543.041 928.196 546.016 927.575 548.697C925.243 558.66 920.993 567.671 913.342 574.763C910.042 577.807 906.363 579.917 901.769 580.54C895.498 581.404 890.731 579.19 887.069 574.209C884.789 571.113 883.39 567.654 883.027 563.797C881.956 552.398 884.927 541.9 890.731 532.317C894.393 526.264 899.799 521.922 907.814 520.764L907.849 520.781ZM904.826 532.611C897.122 537.8 895.464 546.12 893.996 554.422C893.063 559.715 892.769 565.077 897.329 568.882C900.749 570.144 903.15 568.761 905.344 566.858C910.716 562.188 913.67 556.065 915.829 549.406C917.729 543.543 916.813 538.388 912.495 533.58C910.111 533.286 907.659 532.975 904.843 532.629L904.826 532.611Z" fill="#353535"/>
<path d="M918.351 458.514C925.035 457.373 930.355 459.448 935.071 463.565C939.061 467.059 940.201 471.348 938.595 476.26C936.125 483.801 931.979 489.751 922.721 490.997C922.099 490.893 920.821 490.824 919.663 490.426C908.142 486.586 904.325 476.226 910.595 465.9C912.409 462.925 914.706 460.417 918.351 458.497V458.514ZM927.954 471.953C925.692 470.795 923.826 469.843 922.203 468.996C918.99 470.916 918.005 473.406 918.575 476.468C918.955 478.526 920.389 479.65 922.6 479.91C926.141 479.045 927.194 476.26 927.954 471.953Z" fill="#353535"/>
<path d="M944.917 499.212C954.762 498.728 963.209 510.732 958.459 519.484C956.507 523.081 954.4 526.506 951.152 529.048C946.488 532.715 940.236 532.646 935.641 529.014C928.939 523.704 926.935 515.436 930.597 508.172C933.257 502.914 938.888 499.385 944.917 499.212ZM943.138 520.729C946.817 519.034 948.25 516.578 948.492 513.568C946.644 509.988 944.122 510.023 941.289 511.216C939.47 514.652 940.086 517.823 943.138 520.729Z" fill="#353535"/>
<path d="M870.383 501.219C871.489 495.615 873.285 491.343 876.464 487.745C881.473 482.089 888.641 481.086 895.032 485.029C901.354 488.921 903.185 495.13 900.11 502.014C898.418 505.802 895.999 509.037 892.718 511.51C885.636 516.855 876.118 514.589 872.145 506.598C871.333 504.955 870.971 503.069 870.383 501.219ZM884.495 503.692C888.106 501.79 889.643 499.576 890.317 496.116C889.056 495.269 887.656 494.318 886.378 493.453C882.768 495.286 881.732 498.019 881.196 501.409C882.405 502.239 883.338 502.896 884.478 503.692H884.495Z" fill="#353535"/>
<path d="M627.231 145.365C631.255 144.137 633.57 145.088 635.936 145.97C644.538 149.187 652.225 154.03 659.583 159.392C674.006 169.943 688.377 180.597 702.783 191.165C710.366 196.735 718.242 201.924 725.549 207.839C731.128 212.353 736.396 217.387 741.095 222.818C748.85 231.777 749.006 237.398 743.133 247.638C740.265 252.619 736.448 256.684 731.94 260.212C716.135 272.631 698.603 281.123 678.652 284.548C668.012 286.381 657.476 286.797 646.939 284.479C634.053 281.642 623.016 275.312 613.792 265.885C612.272 264.329 610.752 262.651 609.698 260.766C604.482 251.426 600.354 241.792 598.488 231.033C596.208 217.871 598.074 205.521 602.185 193.103C605.657 182.604 610.061 172.624 616.055 163.336C618.611 159.392 620.77 155.189 623.223 151.176C624.501 149.066 626.021 147.112 627.231 145.382V145.365ZM633.863 158.112C626.229 170.773 618.162 238.263 619.855 255.698C622.636 259.001 625.624 262.426 630.53 264.554C630.806 262.72 631.134 261.527 631.152 260.333C631.272 247.447 632.533 234.683 634.433 221.935C636.333 209.223 638.147 196.51 639.805 183.763C640.738 176.654 641.256 169.476 641.947 162.523C639.615 159.669 637.163 158.043 633.863 158.095V158.112ZM695.666 201.111C695.183 202.702 694.716 203.584 694.682 204.483C693.887 222.921 692.108 241.273 689.69 259.572C689.293 262.616 688.861 265.799 690.847 269.172C698.102 268.757 703.958 264.969 709.779 261.06C711.039 244.179 712.577 227.73 711.419 211.039C707.153 208.064 703.077 205.193 698.966 202.391C698.24 201.906 697.29 201.733 695.684 201.128L695.666 201.111ZM649.271 271.904C649.046 265.591 649.513 258.794 649.927 251.996C650.325 245.424 650.843 238.869 651.396 232.313C651.966 225.447 652.536 218.597 653.227 211.748C653.883 205.21 655.075 198.707 655.334 192.151C655.593 185.319 657.7 178.556 656.474 171.309C655.213 170.617 653.952 169.908 652.207 168.957C651.793 171.032 651.396 172.52 651.223 174.025C649.72 186.461 648.217 198.897 646.818 211.333C645.333 224.392 643.744 237.45 642.638 250.544C642.085 257.047 642.535 263.637 642.535 270.607C644.21 271.662 645.626 273.461 649.288 271.922L649.271 271.904Z" fill="#353535"/>
</svg>
