<svg width="141" height="141" viewBox="0 0 141 141" fill="none" xmlns="http://www.w3.org/2000/svg">
<path d="M39.6335 46.6318C41.4433 44.6938 43.2706 43.3189 44.5193 41.3809C44.7623 41.004 45.1019 40.6832 45.4224 40.3628C48.512 37.2776 51.1688 33.8296 53.8452 30.3945C55.0148 28.8934 56.3066 27.4875 57.5278 26.0259C58.5166 24.8432 59.577 23.705 60.4346 22.4322C61.468 20.8986 62.7904 19.6789 64.0907 18.4681C65.1166 18.0822 66.0858 18.0782 67.0741 18.4461C67.9472 19.2189 68.3905 20.1944 68.3449 21.3401C68.2542 23.5989 68.5853 25.8628 67.9893 28.1221C67.6957 29.2348 67.8881 30.4736 67.846 31.6543C67.7744 33.6439 67.9903 35.6484 67.3987 37.611C67.2209 38.2006 67.3286 38.8758 67.308 39.512C67.2529 41.2312 67.4162 42.965 66.8517 44.6478C66.7125 45.0627 66.7801 45.5497 66.766 46.0037C66.718 47.5428 66.8282 49.0914 66.3067 50.592C66.163 51.0054 66.2256 51.4929 66.21 51.9469C66.164 53.3053 66.2246 54.6602 65.7893 55.9961C65.6105 56.5446 65.7948 57.2118 65.8208 58.0492C67.298 57.5812 68.6154 57.2689 69.8486 56.7554C75.2128 54.521 80.6221 52.4033 85.8972 49.9428C91.0865 47.5223 96.5935 45.9081 102.163 44.5727C104.713 43.9611 106.096 44.5822 108.198 47.0373C108.198 47.9682 108.198 49.0393 108.198 50.0109C107.035 51.8588 105.313 52.6546 103.474 53.2472C100.624 54.1662 97.7551 55.0261 94.9039 55.942C92.0503 56.8585 89.2061 57.8065 86.363 58.7559C85.6913 58.9802 85.0396 59.2645 84.3599 59.5282C85.2535 63.5429 86.065 67.4375 86.9991 71.3025C87.6588 74.0313 88.5294 76.7086 89.2232 79.4299C89.9154 82.1462 90.3422 84.9206 90.8857 87.668C91.6035 91.2962 91.5138 94.9415 91.2253 98.5267C90.9157 102.373 90.3963 106.281 88.7047 109.867C86.1 115.389 82.6583 120.143 77.1213 123.17C74.6318 124.531 72.0877 125.63 69.3748 126.421C65.0685 127.677 61.0517 126.802 57.325 124.638C54.0275 122.724 50.8658 120.56 48.3462 117.615C45.0162 113.723 42.2302 109.557 40.8547 104.509C40.3052 102.493 39.7968 100.464 39.5178 98.4231C39.2002 96.1027 39.1491 93.7233 39.6505 91.3738C39.9896 89.7847 40.1464 88.1575 40.459 86.5613C40.9714 83.9446 42.1009 81.5826 43.6007 79.3919C43.6968 79.2517 43.8857 79.1751 44.1722 78.9669C44.4697 79.1101 44.8414 79.2893 45.1269 79.4269C45.192 79.7567 45.2822 79.9409 45.2526 80.1031C44.9426 81.8064 44.0029 83.2889 43.6307 84.9972C42.95 88.1209 42.3839 91.2762 42.7987 94.431C43.4394 99.3035 44.5499 104.091 47.5443 108.173C48.6683 109.705 49.8815 111.176 51.1177 112.621C52.4311 114.155 54.048 115.33 55.8323 116.274C57.1907 116.993 58.466 117.833 59.9242 118.411C61.4049 118.998 62.8475 119.262 64.4148 119.298C66.2837 119.342 68.0163 119.059 69.6438 118.087C70.7352 117.435 71.9379 116.969 73.0299 116.319C77.3116 113.769 79.9344 109.917 81.2893 105.226C82.1429 102.271 82.7279 99.2345 82.5761 96.1077C82.5055 94.6557 82.522 93.1952 82.5781 91.7417C82.6773 89.178 82.0792 86.7065 81.7106 84.1999C80.9727 79.1796 79.464 74.3221 78.636 69.3189C78.3119 67.3604 77.6277 65.4684 77.4764 63.4618C77.4308 62.8557 77.0847 62.2721 76.8242 61.5308C76.2948 61.5068 75.7498 61.3767 75.2514 61.4768C72.4989 62.0293 69.7555 62.626 67.0155 63.2376C66.4895 63.3552 65.9931 63.6045 65.343 63.8447C65.2708 64.3062 65.1827 64.8252 65.1101 65.3468C64.9728 66.3298 64.8265 67.3123 64.7178 68.2988C64.6382 69.0201 64.6312 69.7489 64.5576 70.4706C64.4479 71.5482 64.2841 72.6208 64.1889 73.6995C64.1012 74.693 64.0662 75.6915 64.0211 76.6886C63.9264 78.7677 64.228 80.8744 63.5567 82.9135C63.4741 83.1643 63.4951 83.4556 63.5001 83.7274C63.5808 88.3261 61.9869 92.4309 59.7794 96.5046C59.1177 96.817 58.3959 97.1573 57.7347 97.4696C57.3565 97.2854 57.0675 97.2189 56.8847 97.0427C56.1303 96.3144 55.7662 95.402 55.7561 94.3549C55.7486 93.5361 55.7551 92.7172 55.7566 91.8989C55.7636 88.5329 55.7531 85.1664 55.7857 81.8004C55.8047 79.8093 55.6254 77.8052 56.216 75.8447C56.3682 75.3392 56.2771 74.7601 56.2971 74.215C56.3472 72.8581 56.3417 71.5182 56.7003 70.1653C57.0445 68.8689 56.9197 67.4825 56.777 66.0465C55.3148 65.6516 53.9849 65.8153 52.646 65.9985C51.6622 66.1331 50.6704 66.2737 49.6811 66.2793C48.7935 66.2843 48.1569 65.7797 47.8468 64.9183C48.1298 64.151 48.7154 63.7842 49.4623 63.593C51.0431 63.1885 52.644 62.8402 54.1908 62.3307C55.3775 61.9397 56.7054 61.7976 57.6621 60.761C57.7262 60.5368 57.8755 60.2745 57.8624 60.0207C57.7227 57.2824 58.44 54.6156 58.5261 51.8968C58.5402 51.4499 58.6849 51.0084 58.7541 50.5619C59.264 47.2565 59.8921 43.9696 60.1656 40.6281C60.2833 39.1886 60.5468 37.7591 60.7802 36.3312C61.0858 34.4592 61.4319 32.5943 61.744 30.7233C61.771 30.5612 61.6738 30.3785 61.6323 30.1973C61.203 29.932 60.9736 30.2834 60.7872 30.5376C60.1977 31.3425 59.6607 32.1853 59.0832 32.9992C56.25 36.9918 53.4399 41.002 50.5557 44.9576C49.5975 46.272 48.4584 47.4577 47.3725 48.6755C45.3789 50.9108 43.4248 53.1857 41.3396 55.3334C39.2929 57.4421 37.7576 57.5542 34.8924 56.0376C33.7754 54.3609 33.1062 52.4434 32.7505 50.3357C32.1039 46.5012 31.2944 42.6933 30.499 38.8858C29.8884 35.9643 29.1881 33.0693 28.8961 30.0812C28.7212 28.2963 28.1748 26.548 27.7289 24.4738C27.0497 26.7692 26.4056 28.7638 25.8721 30.7869C24.8558 34.6409 23.8494 38.4989 22.9363 42.3784C21.8999 46.7795 20.9136 51.1881 20.1963 55.6637C19.5527 59.6759 18.7387 63.667 17.7975 67.6337C16.6494 72.4722 15.7909 77.3788 14.8106 82.2568C13.7937 87.3176 12.574 92.3303 11.3143 97.335C10.4081 100.934 9.58864 104.556 8.75613 108.173C8.20664 110.562 7.57199 111.606 5.1987 113.7C4.46187 113.7 3.57025 113.7 2.60701 113.7C0.210678 112.23 -0.459034 110.025 0.292826 107.389C1.1639 104.338 2.17373 101.326 3.13647 98.301C4.73236 93.2863 6.37983 88.2871 7.92363 83.2564C8.80021 80.3994 9.51601 77.4934 10.2989 74.6079C11.3423 70.7604 12.3822 66.9124 13.4206 63.0639C14.223 60.0893 15.016 57.1127 15.8239 54.1396C16.3704 52.1286 16.9234 50.1195 17.4949 48.1159C18.6135 44.1938 19.7395 40.2737 20.8801 36.3577C21.1591 35.3997 21.5177 34.4652 21.8193 33.5132C23.1361 29.3619 24.4565 25.2121 25.7474 21.0528C25.9868 20.2805 26.1556 19.4751 26.2493 18.6728C26.3324 17.9586 26.2668 17.2268 26.2668 16.3934C26.7877 15.923 27.2987 15.461 27.8086 15C29.0989 15.5731 29.8513 16.4575 30.3181 17.5687C31.1612 19.5758 32.0728 21.5668 32.725 23.6375C33.7318 26.8333 34.5388 30.0922 35.4409 33.321C35.8556 34.8051 36.2814 36.2861 36.7272 37.7611C37.4355 40.1051 38.1563 42.4445 38.8901 44.7804C39.0489 45.292 39.2864 45.778 39.6335 46.6318Z" fill="#6457A6"/>
<path d="M121.804 108.314C120.814 108.1 120.097 107.977 119.399 107.787C116.224 106.926 113.682 105.243 111.759 102.48C109.44 99.1459 107.851 95.5446 106.945 91.6131C106.884 91.3488 106.726 91.101 106.697 90.8368C106.265 86.8701 105.662 82.8855 106.134 78.9069C106.507 75.7651 106.559 72.5763 107.204 69.4811C107.922 66.032 108.483 62.5484 109.578 59.1719C112.304 50.7726 115.685 42.6562 119.873 34.8867C121.291 32.2544 122.958 29.7608 124.915 27.4765C125.797 26.4474 126.454 25.2331 127.596 24.4198C129.248 23.2446 130.964 22.2565 133.069 22.0884C133.847 22.3261 134.624 22.5639 135.346 22.7846C137.718 24.6105 138.999 27.1161 140.184 29.6807C140.655 30.6988 140.715 31.7424 140.25 32.7194C139.577 32.9136 139.294 32.5612 139.003 32.2029C137.633 30.5161 136.27 28.8234 134.877 27.1561C134.533 26.7452 134.084 26.4219 133.664 26.0395C131.72 26.3298 130.565 27.6231 129.66 29.0901C127.032 33.3491 124.841 37.8287 123.174 42.5576C121.425 47.5183 119.626 52.4609 117.898 57.4286C116.854 60.4287 116.147 63.5034 115.873 66.6882C115.696 68.7518 115.247 70.7919 114.951 72.8466C114.861 73.4732 114.85 74.1149 114.846 74.75C114.826 77.5685 114.87 80.3884 114.803 83.2058C114.685 88.155 116.078 92.6847 118.418 96.9861C119.24 98.4967 120.364 99.5848 122.011 100.078C123.745 99.9032 125.148 99.0373 126.413 98.0222C128.109 96.6623 129.699 95.1683 131.301 93.6952C133.256 91.8984 134.685 89.6826 136.156 87.5003C137.068 86.1479 137.892 84.7214 139.194 83.6783C139.639 83.3219 140.114 83.0862 140.859 83.5502C140.898 84.0262 141.069 84.6538 140.969 85.2344C140.831 86.0298 140.563 86.8246 140.218 87.5578C138.21 91.8343 136.063 96.0597 133.428 99.9702C131.4 102.978 128.881 105.665 125.423 107.16C124.267 107.66 123.015 107.936 121.804 108.314Z" fill="#6457A6"/>
</svg>
