<svg width="141" height="112" viewBox="0 0 141 112" fill="none" xmlns="http://www.w3.org/2000/svg">
<g clip-path="url(#clip0_404_59)">
<path d="M39.6335 31.6318C41.4433 29.6938 43.2706 28.3189 44.5193 26.3809C44.7623 26.004 45.1019 25.6832 45.4224 25.3628C48.512 22.2776 51.1688 18.8296 53.8452 15.3945C55.0148 13.8934 56.3066 12.4875 57.5278 11.0259C58.5166 9.84322 59.577 8.70504 60.4346 7.43222C61.468 5.89862 62.7904 4.67886 64.0907 3.4681C65.1166 3.0822 66.0858 3.0782 67.0741 3.44608C67.9472 4.21888 68.3905 5.19439 68.3449 6.34008C68.2542 8.59893 68.5853 10.8628 67.9893 13.1221C67.6957 14.2348 67.8881 15.4736 67.846 16.6543C67.7744 18.6439 67.9903 20.6484 67.3987 22.611C67.2209 23.2006 67.3286 23.8758 67.308 24.512C67.2529 26.2312 67.4162 27.965 66.8517 29.6478C66.7125 30.0627 66.7801 30.5497 66.766 31.0037C66.718 32.5428 66.8282 34.0914 66.3067 35.592C66.163 36.0054 66.2256 36.4929 66.21 36.9469C66.164 38.3053 66.2246 39.6602 65.7893 40.9961C65.6105 41.5446 65.7948 42.2118 65.8208 43.0492C67.298 42.5812 68.6154 42.2689 69.8486 41.7554C75.2128 39.521 80.6221 37.4033 85.8972 34.9428C91.0865 32.5223 96.5935 30.9081 102.163 29.5727C104.713 28.9611 106.096 29.5822 108.198 32.0373C108.198 32.9682 108.198 34.0393 108.198 35.0109C107.035 36.8588 105.313 37.6546 103.474 38.2472C100.624 39.1662 97.7551 40.0261 94.9039 40.942C92.0503 41.8585 89.2061 42.8065 86.363 43.7559C85.6913 43.9802 85.0396 44.2645 84.3599 44.5282C85.2535 48.5429 86.065 52.4375 86.9991 56.3025C87.6588 59.0313 88.5294 61.7086 89.2232 64.4299C89.9154 67.1462 90.3422 69.9206 90.8857 72.668C91.6035 76.2962 91.5138 79.9415 91.2253 83.5267C90.9157 87.3732 90.3963 91.2808 88.7047 94.8665C86.1 100.389 82.6583 105.143 77.1213 108.17C74.6318 109.531 72.0877 110.63 69.3748 111.421C65.0685 112.677 61.0517 111.802 57.325 109.638C54.0275 107.724 50.8658 105.56 48.3462 102.615C45.0162 98.7225 42.2302 94.5567 40.8547 89.5095C40.3052 87.4929 39.7968 85.4643 39.5178 83.4231C39.2002 81.1027 39.1491 78.7233 39.6505 76.3738C39.9896 74.7847 40.1464 73.1575 40.459 71.5613C40.9714 68.9446 42.1009 66.5826 43.6007 64.3919C43.6968 64.2517 43.8857 64.1751 44.1722 63.9669C44.4697 64.1101 44.8414 64.2893 45.1269 64.4269C45.192 64.7567 45.2822 64.9409 45.2526 65.1031C44.9426 66.8064 44.0029 68.2889 43.6307 69.9972C42.95 73.1209 42.3839 76.2762 42.7987 79.431C43.4394 84.3035 44.5499 89.091 47.5443 93.1733C48.6683 94.7053 49.8815 96.1764 51.1177 97.6209C52.4311 99.1555 54.048 100.33 55.8323 101.274C57.1907 101.993 58.466 102.833 59.9242 103.411C61.4049 103.998 62.8475 104.262 64.4148 104.298C66.2837 104.342 68.0163 104.059 69.6438 103.087C70.7352 102.435 71.9379 101.969 73.0299 101.319C77.3116 98.7691 79.9344 94.9171 81.2893 90.2262C82.1429 87.2706 82.7279 84.2345 82.5761 81.1077C82.5055 79.6557 82.522 78.1952 82.5781 76.7417C82.6773 74.178 82.0792 71.7065 81.7106 69.1999C80.9727 64.1796 79.464 59.3221 78.636 54.3189C78.3119 52.3604 77.6277 50.4684 77.4764 48.4618C77.4308 47.8557 77.0847 47.2721 76.8242 46.5308C76.2948 46.5068 75.7498 46.3767 75.2514 46.4768C72.4989 47.0293 69.7555 47.626 67.0155 48.2376C66.4895 48.3552 65.9931 48.6045 65.343 48.8447C65.2708 49.3062 65.1827 49.8252 65.1101 50.3468C64.9728 51.3298 64.8265 52.3123 64.7178 53.2988C64.6382 54.0201 64.6312 54.7489 64.5576 55.4706C64.4479 56.5482 64.2841 57.6208 64.1889 58.6995C64.1012 59.693 64.0662 60.6915 64.0211 61.6886C63.9264 63.7677 64.228 65.8744 63.5567 67.9135C63.4741 68.1643 63.4951 68.4556 63.5001 68.7274C63.5808 73.3261 61.9869 77.4309 59.7794 81.5046C59.1177 81.817 58.3959 82.1573 57.7347 82.4696C57.3565 82.2854 57.0675 82.2189 56.8847 82.0427C56.1303 81.3144 55.7662 80.402 55.7561 79.3549C55.7486 78.5361 55.7551 77.7172 55.7566 76.8989C55.7636 73.5329 55.7531 70.1664 55.7857 66.8004C55.8047 64.8093 55.6254 62.8052 56.216 60.8447C56.3682 60.3392 56.2771 59.7601 56.2971 59.215C56.3472 57.8581 56.3417 56.5182 56.7003 55.1653C57.0445 53.8689 56.9197 52.4825 56.777 51.0465C55.3148 50.6516 53.9849 50.8153 52.646 50.9985C51.6622 51.1331 50.6704 51.2737 49.6811 51.2793C48.7935 51.2843 48.1569 50.7797 47.8468 49.9183C48.1298 49.151 48.7154 48.7842 49.4623 48.593C51.0431 48.1885 52.644 47.8402 54.1908 47.3307C55.3775 46.9397 56.7054 46.7976 57.6621 45.761C57.7262 45.5368 57.8755 45.2745 57.8624 45.0207C57.7227 42.2824 58.44 39.6156 58.5261 36.8968C58.5402 36.4499 58.6849 36.0084 58.7541 35.5619C59.264 32.2565 59.8921 28.9696 60.1656 25.6281C60.2833 24.1886 60.5468 22.7591 60.7802 21.3312C61.0858 19.4592 61.4319 17.5943 61.744 15.7233C61.771 15.5612 61.6738 15.3785 61.6323 15.1973C61.203 14.932 60.9736 15.2834 60.7872 15.5376C60.1977 16.3425 59.6607 17.1853 59.0832 17.9992C56.25 21.9918 53.4399 26.002 50.5557 29.9576C49.5975 31.272 48.4584 32.4577 47.3725 33.6755C45.3789 35.9108 43.4248 38.1857 41.3396 40.3334C39.2929 42.4421 37.7576 42.5542 34.8924 41.0376C33.7754 39.3609 33.1062 37.4434 32.7505 35.3357C32.1039 31.5012 31.2944 27.6933 30.499 23.8858C29.8884 20.9643 29.1881 18.0693 28.8961 15.0812C28.7212 13.2963 28.1748 11.548 27.7289 9.47384C27.0497 11.7692 26.4056 13.7638 25.8721 15.7869C24.8558 19.6409 23.8494 23.4989 22.9363 27.3784C21.8999 31.7795 20.9136 36.1881 20.1963 40.6637C19.5527 44.6759 18.7387 48.667 17.7975 52.6337C16.6494 57.4722 15.7909 62.3788 14.8106 67.2568C13.7937 72.3176 12.574 77.3303 11.3143 82.335C10.4081 85.9342 9.58864 89.556 8.75613 93.1733C8.20664 95.5622 7.57199 96.6058 5.1987 98.7005C4.46187 98.7005 3.57025 98.7005 2.60701 98.7005C0.210678 97.2305 -0.459034 95.0247 0.292826 92.3889C1.1639 89.3378 2.17373 86.3261 3.13647 83.301C4.73236 78.2863 6.37983 73.2871 7.92363 68.2564C8.80021 65.3994 9.51601 62.4934 10.2989 59.6079C11.3423 55.7604 12.3822 51.9124 13.4206 48.0639C14.223 45.0893 15.016 42.1127 15.8239 39.1396C16.3704 37.1286 16.9234 35.1195 17.4949 33.1159C18.6135 29.1938 19.7395 25.2737 20.8801 21.3577C21.1591 20.3997 21.5177 19.4652 21.8193 18.5132C23.1361 14.3619 24.4565 10.2121 25.7474 6.05279C25.9868 5.28048 26.1556 4.47515 26.2493 3.67281C26.3324 2.95857 26.2668 2.22681 26.2668 1.39345C26.7877 0.922958 27.2987 0.460979 27.8086 0C29.0989 0.573095 29.8513 1.45751 30.3181 2.56867C31.1612 4.57575 32.0728 6.56682 32.725 8.63747C33.7318 11.8333 34.5388 15.0922 35.4409 18.321C35.8556 19.8051 36.2814 21.2861 36.7272 22.7611C37.4355 25.1051 38.1563 27.4445 38.8901 29.7804C39.0489 30.292 39.2864 30.778 39.6335 31.6318Z" fill="#43387E"/>
<path d="M121.804 93.3139C120.814 93.0997 120.097 92.9771 119.399 92.7874C116.224 91.9265 113.682 90.2427 111.759 87.4798C109.44 84.1459 107.851 80.5446 106.945 76.6131C106.884 76.3488 106.726 76.101 106.697 75.8368C106.265 71.8701 105.662 67.8855 106.134 63.9069C106.507 60.7651 106.559 57.5763 107.204 54.4811C107.922 51.032 108.483 47.5484 109.578 44.1719C112.304 35.7726 115.685 27.6562 119.873 19.8867C121.291 17.2544 122.958 14.7608 124.915 12.4765C125.797 11.4474 126.454 10.2331 127.596 9.41978C129.248 8.24456 130.964 7.25654 133.069 7.08836C133.847 7.32611 134.624 7.56385 135.346 7.78458C137.718 9.61048 138.999 12.1161 140.184 14.6807C140.655 15.6988 140.715 16.7424 140.25 17.7194C139.577 17.9136 139.294 17.5612 139.003 17.2029C137.633 15.5161 136.27 13.8234 134.877 12.1561C134.533 11.7452 134.084 11.4219 133.664 11.0395C131.72 11.3298 130.565 12.6231 129.66 14.0901C127.032 18.3491 124.841 22.8287 123.174 27.5576C121.425 32.5183 119.626 37.4609 117.898 42.4286C116.854 45.4287 116.147 48.5034 115.873 51.6882C115.696 53.7518 115.247 55.7919 114.951 57.8466C114.861 58.4732 114.85 59.1149 114.846 59.75C114.826 62.5685 114.87 65.3884 114.803 68.2058C114.685 73.155 116.078 77.6847 118.418 81.9861C119.24 83.4967 120.364 84.5848 122.011 85.0783C123.745 84.9032 125.148 84.0373 126.413 83.0222C128.109 81.6623 129.699 80.1683 131.301 78.6952C133.256 76.8984 134.685 74.6826 136.156 72.5003C137.068 71.1479 137.892 69.7214 139.194 68.6783C139.639 68.3219 140.114 68.0862 140.859 68.5502C140.898 69.0262 141.069 69.6538 140.969 70.2344C140.831 71.0298 140.563 71.8246 140.218 72.5578C138.21 76.8343 136.063 81.0597 133.428 84.9702C131.4 87.9784 128.881 90.6651 125.423 92.1602C124.267 92.6602 123.015 92.9355 121.804 93.3139Z" fill="#43387E"/>
</g>
<defs>
<clipPath id="clip0_404_59">
<rect width="141" height="112" fill="white"/>
</clipPath>
</defs>
</svg>
